<svg width="24" height="24" viewBox="0 0 24 24" fill="none" xmlns="http://www.w3.org/2000/svg">
<g clip-path="url(#clip0_46_11)">
<path d="M4.25 0.299988C1.9 0.299988 0 2.19999 0 4.54999V19.45C0 21.8 1.9 23.7 4.25 23.7H19.75C22.1 23.7 24 21.8 24 19.45V4.54999C24 2.19999 22.1 0.299988 19.75 0.299988H4.25ZM18.32 5.42999H20.35C20.4 5.41999 20.44 5.45999 20.45 5.49999V15.04C20.45 15.22 20.46 15.42 20.47 15.64C20.49 15.85 20.5 16.05 20.51 16.22C20.51 16.29 20.48 16.35 20.41 16.38C19.89 16.6 19.34 16.76 18.78 16.86C18.27 16.95 17.76 17 17.24 17C16.5 17.01 15.76 16.86 15.09 16.55C14.46 16.26 13.94 15.78 13.58 15.19C13.21 14.58 13.03 13.82 13.03 12.91C13.0201 12.163 13.2141 11.4274 13.5912 10.7825C13.9683 10.1376 14.5141 9.60772 15.17 9.24999C15.87 8.85999 16.71 8.66999 17.7 8.66999C17.75 8.66999 17.82 8.66999 17.91 8.67999C18 8.68999 18.1 8.68999 18.22 8.69999V5.53999C18.22 5.46999 18.25 5.42999 18.32 5.42999ZM3.68 6.29999H5.95C6 6.29999 6.05 6.30999 6.09 6.31999C6.13 6.33999 6.16 6.36999 6.19 6.40999C6.38 6.83999 6.6 7.26999 6.83 7.69999C7.07 8.12999 7.3 8.54999 7.55 8.96999C7.79 9.38999 8.01 9.80999 8.22 10.24H8.24C8.45 9.79999 8.67 9.36999 8.89 8.94999C9.11 8.52999 9.34 8.10999 9.57 7.68999C9.8 7.26999 10.02 6.83999 10.24 6.42999C10.25 6.38999 10.27 6.34999 10.3 6.32999C10.3396 6.30806 10.3857 6.30096 10.43 6.30999H12.54C12.59 6.29999 12.64 6.32999 12.65 6.37999C12.66 6.38999 12.64 6.42999 12.62 6.44999L9.62 11.4L12.82 16.65C12.84 16.69 12.85 16.73 12.84 16.77C12.83 16.81 12.79 16.78 12.73 16.79H10.44C10.28 16.79 10.17 16.78 10.1 16.68C9.89 16.26 9.67 15.85 9.46 15.43C9.25 15.02 9.02 14.6 8.78 14.17C8.54 13.74 8.3 13.31 8.06 12.87H8.04C7.83 13.3 7.6 13.73 7.37 14.16C7.14 14.59 6.91 15.02 6.69 15.44C6.46 15.86 6.23 16.29 6 16.7C5.96 16.8 5.88 16.81 5.77 16.81H3.57C3.53 16.81 3.5 16.83 3.5 16.78C3.4956 16.7613 3.4951 16.7418 3.49854 16.7229C3.50198 16.704 3.50929 16.686 3.52 16.67L6.63 11.57L3.6 6.43999C3.57 6.39999 3.56 6.35999 3.58 6.33999C3.6 6.30999 3.64 6.29999 3.68 6.29999ZM17.62 10.53C17.23 10.53 16.84 10.61 16.49 10.79C16.15 10.96 15.86 11.21 15.64 11.53C15.42 11.85 15.31 12.28 15.31 12.8C15.3 13.15 15.36 13.5 15.48 13.83C15.58 14.1 15.73 14.34 15.93 14.54C16.12 14.72 16.35 14.86 16.61 14.94C16.88 15.03 17.16 15.07 17.44 15.07C17.59 15.07 17.73 15.06 17.86 15.05C17.99 15.06 18.1 15.04 18.22 15V10.6C18.13 10.58 18.04 10.56 17.95 10.55C17.84 10.54 17.73 10.53 17.62 10.53Z" fill="black"/>
</g>
<defs>
<clipPath id="clip0_46_11">
<rect width="24" height="24" fill="white"/>
</clipPath>
</defs>
</svg>
