<svg width="24" height="24" viewBox="0 0 24 24" fill="none" xmlns="http://www.w3.org/2000/svg">
<g clip-path="url(#clip0_46_5)">
<path d="M16.66 0C16.59 0 16.5461 0.034 16.496 0.095C16.4458 0.153199 16.4126 0.224196 16.4003 0.300104C16.3879 0.376012 16.3968 0.45386 16.4261 0.525C16.616 0.935 16.7891 1.355 16.9541 1.775C16.9641 1.795 16.976 1.815 16.993 1.843C16.953 1.841 16.943 1.821 16.93 1.8C16.633 1.49 16.2821 1.243 15.932 0.996C15.4591 0.659 14.942 0.393 14.429 0.124C14.3626 0.0886073 14.2899 0.0665274 14.215 0.059L13.831 0.019C13.6291 -0.006 13.476 0.109 13.476 0.311C13.476 0.419 13.43 0.443 13.341 0.451C13.261 0.455 13.154 0.566 13.1451 0.643C13.1287 0.756993 13.141 0.87326 13.1808 0.981321C13.2206 1.08938 13.2867 1.18584 13.373 1.262C13.817 1.677 14.246 2.107 14.676 2.537L14.691 2.544C14.7033 2.55425 14.7129 2.56728 14.719 2.582C14.712 2.585 14.705 2.585 14.699 2.585C14.685 2.5823 14.6726 2.57445 14.664 2.563C14.662 2.561 14.659 2.558 14.659 2.556C14.597 2.52 14.5321 2.486 14.472 2.446C14.172 2.246 13.877 2.042 13.577 1.848C13.4411 1.75159 13.282 1.69293 13.116 1.678C13.044 1.66867 12.9708 1.67679 12.9026 1.70168C12.8344 1.72657 12.7731 1.76749 12.724 1.821C12.6894 1.85246 12.6632 1.8921 12.6478 1.93629C12.6325 1.98049 12.6284 2.02783 12.636 2.074C12.652 2.22 12.751 2.311 12.859 2.386C13.361 2.724 13.809 3.12 14.225 3.56C14.2611 3.598 14.299 3.639 14.34 3.672C14.458 3.768 14.5301 3.896 14.602 4.028C14.635 4.088 14.622 4.102 14.559 4.102C14.131 4.102 13.723 4.22 13.313 4.306C13.145 4.342 12.979 4.4 12.919 4.586C12.854 4.796 12.8231 4.914 13.0791 4.978C13.5891 5.10872 14.0874 5.28131 14.569 5.494C14.6112 5.51458 14.6505 5.54045 14.686 5.571C14.806 5.675 14.916 5.79 15.048 5.874C15.4281 6.121 15.818 6.352 16.268 6.457C16.321 6.469 16.368 6.496 16.418 6.507C16.468 6.522 16.503 6.551 16.5131 6.601C16.5421 6.779 16.6521 6.88 16.8181 6.931C16.8381 6.937 16.856 6.951 16.878 6.959C16.93 6.976 16.9541 7.014 16.9711 7.067C17.0381 7.307 17.1081 7.545 17.1831 7.782C17.2091 7.862 17.1851 7.882 17.1131 7.905C16.7411 8.013 16.371 8.125 16.001 8.239C15.869 8.279 15.867 8.282 15.934 8.402L16.842 10.037C16.969 10.267 16.9741 10.267 17.2071 10.147C17.2311 10.135 17.264 10.094 17.286 10.133C17.306 10.169 17.346 10.222 17.31 10.263C17.197 10.392 17.12 10.543 17.024 10.683C16.993 10.728 16.993 10.757 17.019 10.8C17.119 10.966 17.2211 11.134 17.319 11.302C17.331 11.321 17.3531 11.345 17.3491 11.36L17.226 11.727C17.1581 11.4734 17.0511 11.2318 16.909 11.011C16.729 10.723 16.499 10.469 16.289 10.2C16.256 10.16 16.2171 10.123 16.1791 10.085C15.9791 9.878 15.7231 9.753 15.479 9.607C15.3742 9.5448 15.259 9.50179 15.139 9.48C14.765 9.4 14.393 9.37 14.019 9.484C13.944 9.508 13.903 9.489 13.858 9.424C13.766 9.297 13.692 9.151 13.568 9.052C13.268 8.812 12.9521 8.594 12.583 8.469C12.3048 8.37001 12.0132 8.31338 11.7181 8.301C11.5635 8.29828 11.409 8.30395 11.255 8.318C10.859 8.348 10.465 8.392 10.115 8.611C10.045 8.654 9.96505 8.678 9.89405 8.719C9.53405 8.913 9.17805 9.105 8.87805 9.398C8.56359 9.6976 8.26422 10.0127 7.98105 10.342C7.65905 10.726 7.41605 11.16 7.19805 11.609C7.18305 11.639 7.17605 11.679 7.12805 11.705L7.00805 10.961C7.00105 10.915 7.03005 10.918 7.06105 10.923C7.15005 10.933 7.23605 10.937 7.32505 10.949C7.39205 10.959 7.42805 10.944 7.44505 10.869C7.46705 10.767 7.49105 10.663 7.51205 10.558C7.59405 10.161 7.71205 9.778 7.81505 9.388C7.83505 9.314 7.82205 9.288 7.74505 9.268C7.36405 9.178 6.98205 9.076 6.60005 8.985C6.52805 8.968 6.49405 8.942 6.51605 8.865C6.60305 8.567 6.64105 8.255 6.75805 7.965C6.76769 7.9311 6.78718 7.90082 6.81405 7.878C6.91205 7.802 6.98405 7.713 6.97405 7.576C6.96705 7.473 7.01505 7.408 7.11405 7.362C7.29605 7.276 7.47205 7.175 7.64405 7.074C7.78232 6.99612 7.89569 6.88066 7.97105 6.741C8.29305 6.136 8.56105 5.499 8.95105 4.931C8.98405 4.88 9.01105 4.825 9.05105 4.781C9.30305 4.517 9.53905 4.237 9.82205 4.001C9.91105 3.927 9.93505 3.826 9.93705 3.716C9.93705 3.588 9.86305 3.499 9.78605 3.411C9.71105 3.324 9.63505 3.25 9.50705 3.264C9.47905 3.267 9.45005 3.254 9.41905 3.25C9.43805 3.21 9.46905 3.202 9.49505 3.185C9.83405 2.967 10.172 2.748 10.511 2.527C10.921 2.263 11.33 1.997 11.743 1.733C11.795 1.699 11.819 1.673 11.762 1.623C11.747 1.61 11.738 1.593 11.726 1.579C11.642 1.48 11.642 1.48 11.526 1.549L8.08405 3.693C7.98305 3.755 7.98305 3.755 7.93205 3.643C7.82005 3.38 7.75505 3.103 7.67105 2.833C7.65105 2.771 7.66805 2.735 7.71605 2.696C8.00505 2.466 8.26905 2.206 8.53605 1.954C8.63971 1.85644 8.70559 1.7254 8.72205 1.584C8.74405 1.414 8.63205 1.325 8.47805 1.388C8.40197 1.41767 8.32811 1.45276 8.25705 1.493C7.57705 1.868 6.85205 2.125 6.10805 2.341C6.06505 2.353 6.02605 2.367 5.99005 2.321C5.91605 2.231 5.80505 2.181 5.71205 2.113C5.70341 2.10582 5.69323 2.10073 5.6823 2.09813C5.67138 2.09553 5.66 2.09548 5.64905 2.098C5.54905 2.125 5.44505 2.154 5.38305 2.245C5.22405 2.478 5.02505 2.685 4.87605 2.927C4.70605 3.207 4.54305 3.489 4.35105 3.755C4.31505 3.805 4.30105 3.813 4.26705 3.753L3.63005 2.635C3.56386 2.51717 3.48934 2.40421 3.40705 2.297C3.31305 2.179 3.19805 2.121 3.04905 2.137C3.02305 2.141 2.98905 2.133 2.97905 2.174C2.95905 2.284 2.90905 2.4 2.92205 2.506C2.95605 2.776 3.00405 3.048 3.07205 3.312C3.18605 3.771 3.31605 4.224 3.45205 4.676C3.58505 5.12 3.73405 5.556 3.87805 5.999C3.89005 6.037 3.91105 6.071 3.85805 6.102C3.79105 6.14 3.68305 6.16 3.67105 6.227C3.65905 6.297 3.72105 6.377 3.75105 6.452L3.75805 6.469C3.78205 6.527 3.79405 6.613 3.83805 6.635C3.89505 6.664 3.94805 6.585 4.00005 6.553C4.04805 6.523 4.06505 6.532 4.08705 6.582C4.21105 6.875 4.33905 7.165 4.46705 7.458C4.48705 7.50109 4.48921 7.55033 4.47305 7.595C4.38753 7.82874 4.32327 8.06971 4.28105 8.315C4.26905 8.385 4.24305 8.385 4.19105 8.37C3.91333 8.29889 3.63533 8.22889 3.35705 8.16C3.23405 8.128 3.23405 8.128 3.22005 8.253V8.263C3.16005 8.928 3.10005 9.593 3.03705 10.257C3.03305 10.317 3.04005 10.342 3.10505 10.349C3.29905 10.373 3.49105 10.404 3.68305 10.433C3.71905 10.438 3.75005 10.44 3.74105 10.493C3.69805 10.718 3.66405 10.946 3.61605 11.17C3.608 11.1979 3.60689 11.2273 3.61282 11.2557C3.61874 11.2841 3.63152 11.3107 3.65005 11.333L3.85005 11.597C3.89505 11.66 3.93005 11.741 3.88705 11.806C3.86404 11.8409 3.8525 11.8822 3.85405 11.924C3.86105 12.339 3.86105 12.754 3.88005 13.17C3.89005 13.37 3.88705 13.573 3.89205 13.775C3.90205 14.31 3.93205 14.843 3.95205 15.378C3.96205 15.64 3.91605 15.898 3.92805 16.161C3.93005 16.226 3.94505 16.261 4.01205 16.283C4.17205 16.333 4.32405 16.399 4.48505 16.449C4.52559 16.4595 4.56326 16.479 4.59527 16.506C4.62729 16.533 4.65284 16.5668 4.67005 16.605C4.70142 16.6735 4.71452 16.7489 4.70805 16.824C4.70605 16.896 4.73205 16.939 4.79005 16.98C5.03705 17.157 5.28205 17.34 5.53005 17.522C6.18005 18.002 6.83005 18.485 7.48405 18.962C7.54405 19.007 7.55805 19.043 7.52205 19.108C7.48805 19.17 7.46705 19.243 7.43305 19.305C7.40405 19.363 7.40905 19.399 7.46405 19.439C7.54605 19.497 7.62505 19.562 7.70005 19.627C7.76505 19.682 7.76705 19.768 7.74805 19.835C7.73305 19.885 7.66105 19.84 7.61605 19.835C7.58405 19.833 7.55305 19.825 7.52205 19.821C7.21205 19.771 6.90505 19.691 6.59005 19.665C6.09005 19.625 5.58705 19.581 5.08005 19.595C5.05405 19.595 5.01305 19.571 5.00605 19.625C4.99905 19.667 4.98905 19.713 5.03705 19.742C5.06105 19.756 5.08705 19.768 5.11405 19.778C5.39705 19.876 5.66105 20.018 5.92105 20.168C6.08905 20.263 6.25405 20.371 6.43905 20.436C6.47305 20.448 6.50705 20.474 6.54705 20.438C6.26905 20.218 5.99305 19.996 5.71405 19.773C5.75405 19.744 5.78405 19.756 5.81405 19.759C6.14605 19.785 6.47805 19.831 6.80205 19.909C7.51505 20.079 8.22305 20.27 8.92405 20.481C9.15405 20.551 9.39905 20.585 9.60605 20.724C9.65605 20.757 9.68605 20.791 9.68005 20.854C9.69205 20.868 9.70705 20.887 9.69005 20.899C9.67005 20.911 9.65405 20.887 9.64005 20.875C9.47605 20.861 9.31305 20.849 9.15205 20.832C8.68905 20.786 8.22805 20.722 7.76005 20.736C7.41005 20.746 7.05905 20.721 6.71005 20.746C6.21605 20.779 5.72105 20.844 5.23005 20.896C5.20505 20.899 5.16705 20.894 5.16705 20.923C5.16705 20.959 5.18105 21 5.22705 21.01C5.26423 21.0177 5.30208 21.0217 5.34005 21.022C5.59005 21.032 5.83705 21.029 6.08605 21.033C6.70605 21.048 7.32805 21.021 7.94605 21.074C8.17005 21.094 8.39605 21.084 8.61405 21.124C9.64405 21.317 10.6691 21.518 11.692 21.742C11.812 21.768 11.9351 21.787 12.052 21.845C11.997 21.895 11.925 21.91 11.894 21.982C11.674 22.488 11.531 23.022 11.364 23.545C11.3341 23.635 11.394 23.737 11.484 23.761C11.5217 23.772 11.5612 23.7749 11.6 23.7695C11.6389 23.7642 11.6761 23.7507 11.7094 23.7299C11.7426 23.7091 11.7711 23.6816 11.7929 23.649C11.8147 23.6164 11.8294 23.5796 11.8361 23.541C11.8561 23.432 11.875 23.324 11.889 23.213C11.894 23.177 11.906 23.158 11.942 23.146C12.074 23.093 12.202 23.038 12.335 22.986C12.5306 22.9126 12.7102 22.8022 12.864 22.661C12.998 22.534 13.111 22.387 13.114 22.191C13.114 22.131 13.128 22.092 13.176 22.056C13.396 21.886 13.594 21.691 13.786 21.492C13.974 21.3012 14.1744 21.1231 14.386 20.959C14.41 20.939 14.429 20.911 14.466 20.925L15.026 21.146C14.6521 21.374 14.2961 21.593 13.944 21.806C13.927 21.816 13.908 21.821 13.891 21.826C13.7636 21.8643 13.6476 21.9334 13.5531 22.027C13.1781 22.399 12.986 22.841 13.008 23.377C13.022 23.737 13.228 23.907 13.578 23.827C14.194 23.682 14.718 23.093 14.811 22.447C14.835 22.267 14.863 22.09 14.734 21.934C14.6786 21.8656 14.6191 21.8005 14.556 21.739C14.576 21.727 14.585 21.72 14.595 21.713C15.3721 21.25 16.22 20.935 17.07 20.643C18.11 20.284 19.17 19.999 20.234 19.725L20.159 19.708C20.0891 19.715 20.023 19.723 19.953 19.728C19.6591 19.7474 19.3673 19.7922 19.081 19.862L19.0651 19.869C19.0351 19.8806 19.0031 19.8857 18.9711 19.884C18.9571 19.884 18.941 19.884 18.923 19.886C18.9881 19.824 19.175 19.622 19.226 19.636L19.2281 19.631H19.233C19.233 19.624 19.2521 19.611 19.2521 19.611C19.2691 19.581 19.292 19.562 19.326 19.561C19.3786 19.4856 19.4455 19.4213 19.5231 19.372C19.573 19.342 19.6261 19.31 19.6831 19.286H19.682C19.842 19.286 20.001 19.092 20.168 19.024C20.167 19.018 20.1581 19.014 20.1551 19.007C19.9151 19.041 19.679 19.079 19.449 19.167C18.957 19.348 18.448 19.49 17.9681 19.701C17.2261 20.025 16.486 20.349 15.773 20.736C15.748 20.7493 15.7223 20.7613 15.696 20.772L15.641 20.268C15.636 20.234 15.653 20.22 15.681 20.205C16.313 19.871 16.9471 19.54 17.607 19.267C18.1501 19.041 18.687 18.797 19.233 18.576C19.2351 18.571 19.2381 18.566 19.243 18.566H19.247C19.25 18.566 19.25 18.569 19.2521 18.569C19.2591 18.581 19.254 18.589 19.247 18.595C19.245 18.598 19.242 18.598 19.237 18.6H19.2351C19.0865 18.8053 18.9618 19.0267 18.8631 19.26C18.9011 19.27 18.916 19.257 18.93 19.242C19.0431 19.122 19.156 19.005 19.2661 18.885C19.4801 18.651 19.706 18.427 19.97 18.245C19.987 18.233 20.015 18.223 20.003 18.197C19.989 18.167 19.958 18.182 19.9361 18.187C19.6891 18.237 19.442 18.283 19.196 18.341C19.115 18.36 19.12 18.331 19.116 18.274C19.115 18.077 19.144 17.884 19.151 17.688C19.1534 17.6026 19.1732 17.5185 19.209 17.441C19.307 17.215 19.406 16.991 19.5061 16.766C19.556 16.653 19.5861 16.533 19.605 16.413C19.635 16.221 19.6601 16.027 19.6791 15.833C19.7091 15.533 19.816 15.253 19.866 14.958C19.931 14.584 19.984 14.207 20.123 13.848C20.248 13.532 20.368 13.215 20.4951 12.901C20.6711 12.473 20.894 12.068 21 11.611C21.036 11.453 21.076 11.309 21.004 11.153C20.964 11.069 20.952 10.973 20.923 10.882C20.9011 10.8163 20.8969 10.7459 20.911 10.678C20.959 10.433 20.981 10.19 20.848 9.962C20.812 9.9 20.8561 9.862 20.892 9.822C20.98 9.732 20.9851 9.691 20.9081 9.592C20.8201 9.482 20.733 9.369 20.6381 9.266C20.5581 9.182 20.484 9.091 20.404 9.004C20.349 8.971 20.354 8.949 20.416 8.928C20.556 8.88 20.692 8.82 20.834 8.776C20.914 8.752 20.934 8.706 20.9401 8.635C20.9851 8.03 21.0301 7.422 21.0791 6.817C21.0861 6.733 21.0721 6.717 20.9851 6.743C20.531 6.887 20.078 7.023 19.622 7.165C19.482 7.209 19.48 7.209 19.418 7.072C19.187 6.552 19.007 6.015 18.8181 5.482C18.7972 5.43173 18.7871 5.37767 18.7883 5.32326C18.7895 5.26886 18.802 5.2153 18.8251 5.166C18.8921 4.978 18.849 4.789 18.844 4.599C18.8409 4.5893 18.8392 4.57919 18.8391 4.569C18.7987 4.04702 18.7138 3.52946 18.585 3.022C18.4671 2.58108 18.2993 2.15501 18.085 1.752C17.857 1.32 17.612 0.892 17.348 0.477C17.235 0.299 17.115 0.138 16.914 0.05C16.8332 0.0177313 16.7471 0.000776423 16.66 0ZM14.018 0.26C14.0882 0.257347 14.1577 0.275059 14.2181 0.311C14.7193 0.557654 15.2094 0.826247 15.687 1.116C15.934 1.274 16.1691 1.454 16.4021 1.636C16.512 1.723 16.5941 1.853 16.6861 1.966C16.7241 2.013 16.6981 2.056 16.6621 2.09C16.6381 2.114 16.6041 2.129 16.5751 2.145C16.5441 2.167 16.503 2.185 16.515 2.232C16.525 2.272 16.57 2.282 16.605 2.29C16.6587 2.30136 16.7145 2.29612 16.765 2.275C16.933 2.205 17.0751 2.323 17.1831 2.441C17.2111 2.471 17.223 2.534 17.276 2.515C17.331 2.494 17.339 2.434 17.334 2.378C17.322 2.228 17.284 2.081 17.25 1.934C17.16 1.557 16.9801 1.216 16.8321 0.861C16.779 0.734 16.7221 0.607 16.6691 0.479C16.6391 0.409 16.679 0.347 16.717 0.297C16.747 0.257 16.7971 0.292 16.8391 0.311C16.9911 0.379 17.077 0.501 17.151 0.643C17.231 0.793 17.3291 0.933 17.413 1.079C17.557 1.334 17.7351 1.574 17.85 1.841C18.0181 2.229 18.232 2.599 18.333 3.017C18.4191 3.387 18.541 3.749 18.585 4.131C18.601 4.275 18.575 4.414 18.592 4.553C18.625 4.832 18.584 5.096 18.469 5.351C18.439 5.421 18.4481 5.487 18.4811 5.559C18.7331 6.092 18.941 6.642 19.151 7.194C19.178 7.266 19.166 7.294 19.091 7.317C18.609 7.457 18.126 7.605 17.644 7.751C17.574 7.773 17.552 7.754 17.531 7.691C17.408 7.365 17.291 7.045 17.178 6.724C17.154 6.656 17.125 6.62 17.05 6.637C16.962 6.659 16.914 6.62 16.875 6.541C16.813 6.414 16.762 6.261 16.659 6.181C16.5561 6.101 16.3931 6.099 16.2561 6.066C16.1531 6.039 16.049 6.008 15.944 5.991C15.7213 5.94983 15.5115 5.85626 15.332 5.718C15.029 5.494 14.717 5.288 14.398 5.091C14.294 5.084 14.196 5.055 14.095 5.031C13.817 4.974 13.541 4.914 13.262 4.861C13.195 4.849 13.182 4.798 13.1781 4.753C13.1711 4.697 13.1851 4.643 13.243 4.609C13.332 4.556 13.433 4.546 13.533 4.529C13.9778 4.45442 14.4272 4.41098 14.878 4.399C14.988 4.397 15.087 4.439 15.19 4.465C15.2181 4.47394 15.2478 4.47588 15.2768 4.47065C15.3057 4.46542 15.3329 4.45318 15.356 4.435C15.572 4.292 15.7901 4.155 16.0061 4.013C16.0401 3.992 16.102 3.977 16.076 3.92C16.0723 3.91191 16.0672 3.90448 16.0611 3.898C16.0491 3.888 16.035 3.886 16.018 3.886L15.9681 3.888H15.9611C15.7231 3.88452 15.4899 3.95434 15.293 4.088C15.213 4.138 15.033 4.107 14.983 4.032C14.643 3.516 14.16 3.144 13.701 2.742C13.497 2.566 13.298 2.381 13.081 2.217C13.0271 2.177 13.001 2.073 13.039 2.021C13.087 1.949 13.149 1.98 13.207 2.006C13.392 2.088 13.569 2.181 13.735 2.299C14.299 2.702 14.905 3.043 15.507 3.384C15.5232 3.39392 15.5399 3.40294 15.557 3.411C15.649 3.441 15.6971 3.401 15.682 3.305C15.6744 3.25539 15.6529 3.20895 15.62 3.171C15.132 2.597 14.6191 2.047 14.114 1.488C14.0091 1.372 13.884 1.272 13.766 1.168C13.6741 1.09174 13.5991 0.997035 13.546 0.89C13.5289 0.860081 13.5219 0.82542 13.526 0.791182C13.5302 0.756944 13.5453 0.724961 13.569 0.7C13.609 0.655 13.646 0.645 13.706 0.676C13.876 0.758 14.038 0.854 14.189 0.969C14.455 1.171 14.724 1.372 14.993 1.574L15.8 2.177C15.8201 2.194 15.8431 2.21 15.8621 2.227C15.9121 2.273 15.956 2.321 16.004 2.369L16.0331 2.398C16.0521 2.417 16.069 2.443 16.0931 2.458C16.1481 2.491 16.2051 2.52 16.2631 2.462C16.2831 2.442 16.292 2.426 16.293 2.407C16.293 2.4 16.297 2.393 16.293 2.386L16.292 2.376C16.2839 2.3488 16.2691 2.32406 16.2491 2.304L16.069 2.117C15.9698 2.01278 15.8657 1.91333 15.757 1.819C15.407 1.529 15.051 1.248 14.691 0.974C14.508 0.834 14.2941 0.741 14.095 0.626C14.0231 0.585 13.975 0.525 13.922 0.467C13.9045 0.446719 13.8929 0.421927 13.8887 0.395422C13.8844 0.368917 13.8877 0.341755 13.898 0.317C13.92 0.263 13.973 0.266 14.018 0.261V0.26ZM8.25205 1.649C8.262 1.64737 8.27222 1.64913 8.28105 1.654C8.32905 1.681 8.31105 1.731 8.31105 1.789C8.32405 1.849 8.28505 1.899 8.23105 1.949C7.88505 2.271 7.52405 2.576 7.15505 2.871C7.00805 2.989 6.82805 3.044 6.66505 3.133C6.63105 3.15 6.61205 3.133 6.59305 3.109C6.47305 2.955 6.35505 2.799 6.23505 2.646C6.19005 2.591 6.25205 2.593 6.28105 2.581C6.53505 2.49 6.78505 2.386 7.03705 2.286C7.40205 2.142 7.73305 1.936 8.07705 1.753C8.11305 1.733 8.14705 1.71 8.18205 1.69C8.20605 1.68 8.22605 1.653 8.25205 1.649ZM5.63305 2.479C5.68372 2.4844 5.73101 2.50698 5.76705 2.543C5.83905 2.61 5.89705 2.687 5.94705 2.771C6.12005 3.051 6.36005 3.277 6.59305 3.508C6.75605 3.671 6.92305 3.828 7.09505 3.978C7.15205 4.028 7.16205 4.105 7.19305 4.17C7.20505 4.194 7.19505 4.213 7.17305 4.225C7.16205 4.233 7.15005 4.238 7.14305 4.245C7.00105 4.365 6.86705 4.348 6.70105 4.264C6.37838 4.09941 6.08618 3.88094 5.83705 3.618C5.82705 3.608 5.81705 3.601 5.80705 3.594C5.69305 3.508 5.68705 3.512 5.63705 3.644C5.58505 3.779 5.55105 3.918 5.49105 4.048C5.46905 4.093 5.50305 4.142 5.53705 4.175C5.57505 4.214 5.60105 4.274 5.67105 4.264C5.70205 4.259 5.71905 4.242 5.72605 4.209C5.74305 4.129 5.76605 4.049 5.78605 3.952C6.04805 4.172 6.33905 4.342 6.62605 4.535L6.34805 4.694C5.63505 5.094 4.92005 5.494 4.20905 5.899C4.15105 5.929 4.12705 5.937 4.10305 5.865C3.83005 5.018 3.54305 4.175 3.31305 3.313C3.26105 3.113 3.23905 2.905 3.20105 2.701C3.18905 2.641 3.22905 2.61 3.26805 2.588C3.32105 2.562 3.32305 2.624 3.34205 2.648C3.71905 3.168 3.97605 3.758 4.28305 4.317C4.37505 4.485 4.47805 4.647 4.57605 4.814C4.59605 4.844 4.61005 4.871 4.65805 4.854C4.71105 4.834 4.70105 4.802 4.69205 4.764C4.65305 4.59 4.56405 4.434 4.49905 4.271C4.48718 4.24591 4.48127 4.2184 4.48179 4.19065C4.48231 4.16289 4.48925 4.13563 4.50205 4.111C4.63905 3.827 4.83205 3.58 4.98205 3.308C5.12205 3.061 5.29905 2.84 5.43305 2.591C5.45158 2.55472 5.48051 2.52478 5.51613 2.50501C5.55175 2.48524 5.59246 2.47553 5.63305 2.479ZM7.40705 2.971C7.42105 2.974 7.43105 2.987 7.44305 3.013C7.56305 3.283 7.64405 3.568 7.74505 3.843C7.75505 3.87 7.75705 3.892 7.72805 3.909L7.47205 4.067C7.46405 4.072 7.45505 4.074 7.42605 4.087C7.41905 4.074 7.40905 4.053 7.39505 4.036L6.85505 3.416C6.83105 3.388 6.80705 3.361 6.85505 3.335C7.03205 3.234 7.16705 3.071 7.35405 2.985C7.37805 2.974 7.39405 2.968 7.40705 2.971ZM9.33605 3.457C9.38682 3.45435 9.43674 3.47076 9.47605 3.503C9.50935 3.52744 9.53469 3.56116 9.54892 3.59994C9.56315 3.63871 9.56563 3.68082 9.55605 3.721C9.53314 3.8318 9.47697 3.93297 9.39505 4.011C9.05578 4.33635 8.75938 4.70365 8.51305 5.104C8.28505 5.464 8.06005 5.822 7.88905 6.214C7.85208 6.29025 7.80275 6.35986 7.74305 6.42C7.50305 6.693 7.21705 6.905 6.88805 7.058C6.85611 7.07051 6.8287 7.09239 6.80942 7.12077C6.79015 7.14915 6.77991 7.18269 6.78005 7.217C6.77505 7.277 6.75605 7.335 6.75105 7.395C6.75067 7.46867 6.73333 7.54127 6.70038 7.60717C6.66743 7.67306 6.61976 7.73049 6.56105 7.775C6.52105 7.807 6.51605 7.858 6.50105 7.901L6.22805 8.816C6.22805 8.823 6.22805 8.83 6.22605 8.835C6.22605 8.849 6.22805 8.865 6.20905 8.873C6.16905 8.883 6.13205 8.871 6.09605 8.852C5.6509 8.74802 5.20751 8.63667 4.76605 8.518C4.71105 8.506 4.65805 8.488 4.60005 8.482C4.51205 8.47 4.50405 8.429 4.54505 8.362C4.60305 8.081 4.67005 7.802 4.84305 7.565C4.88105 7.512 4.87905 7.469 4.84505 7.411C4.65505 7.094 4.51105 6.753 4.35305 6.421C4.32705 6.367 4.33605 6.341 4.38705 6.311C5.24946 5.77828 6.11047 5.24328 6.97005 4.706C7.01505 4.676 7.05905 4.694 7.10205 4.684C7.25305 4.65 7.40005 4.604 7.53205 4.521C7.54205 4.514 7.55805 4.509 7.56205 4.499C7.65905 4.286 7.87205 4.213 8.05205 4.129C8.46305 3.942 8.87805 3.769 9.24105 3.496C9.26814 3.47369 9.30116 3.46079 9.33605 3.457ZM20.779 7.229V7.234L20.781 7.233C20.76 7.489 20.738 7.731 20.719 7.973L20.6761 8.508C20.6711 8.573 20.6521 8.614 20.5821 8.638C19.4575 9.02443 18.3341 9.41443 17.212 9.808L17.1721 9.817C17.1371 9.822 17.118 9.805 17.092 9.762C16.875 9.368 16.654 8.977 16.431 8.585C16.401 8.535 16.3931 8.508 16.465 8.489L20.719 7.243C20.733 7.238 20.749 7.236 20.779 7.229ZM20.369 7.615C20.215 7.618 20.076 7.762 20.083 7.908C20.09 8.045 20.2071 8.165 20.337 8.16C20.474 8.158 20.607 8.007 20.604 7.858C20.5991 7.692 20.523 7.613 20.369 7.615ZM3.53905 8.485C3.54905 8.485 3.56305 8.487 3.57905 8.492L5.51205 9L7.44905 9.51C7.51105 9.527 7.53105 9.546 7.50905 9.61L7.23105 10.523C7.22105 10.559 7.21405 10.597 7.17305 10.597C7.16632 10.5975 7.15956 10.5968 7.15305 10.595L6.11705 10.453C5.89105 10.423 5.66705 10.391 5.44205 10.36C4.75744 10.2619 4.07243 10.1665 3.38705 10.074C3.34405 10.062 3.32905 10.036 3.33705 9.976C3.38905 9.5 3.44005 9.025 3.49005 8.546C3.49305 8.535 3.49205 8.526 3.49505 8.516C3.49784 8.51145 3.49955 8.50632 3.50005 8.501C3.50705 8.487 3.52105 8.481 3.53805 8.481L3.53905 8.485ZM11.675 8.588L11.788 8.59C11.985 8.6 12.177 8.676 12.357 8.756C12.437 8.792 12.516 8.826 12.595 8.864L12.6521 8.893C12.71 8.921 12.77 8.95 12.825 8.983L12.938 9.048C12.974 9.073 13.013 9.094 13.046 9.121C13.118 9.171 13.1881 9.226 13.253 9.286C13.4711 9.488 13.625 9.726 13.716 10.006C13.781 10.208 13.829 10.415 13.846 10.623C13.862 10.825 13.802 11.022 13.75 11.216C13.742 11.246 13.7301 11.252 13.72 11.25C13.706 11.245 13.699 11.228 13.687 11.214L13.471 10.964C13.2007 10.636 12.8375 10.3976 12.429 10.28C12.1052 10.1886 11.7714 10.1369 11.4351 10.126C11.1645 10.128 10.895 10.1588 10.631 10.218C10.42 10.258 10.208 10.292 10 10.331C9.86305 10.355 9.73805 10.417 9.61305 10.471C9.55305 10.499 9.49305 10.525 9.43305 10.548L9.41305 10.552C9.03705 10.684 8.71805 10.912 8.38905 11.122C8.29905 11.182 8.22405 11.262 8.14605 11.34L8.13605 11.348L8.07205 11.413C7.92005 11.56 7.77205 11.709 7.60805 11.843C7.53405 11.946 7.43305 12.018 7.34005 12.109C7.36405 11.939 7.41005 11.781 7.48605 11.637C7.56531 11.4873 7.65277 11.3421 7.74805 11.202C7.79605 11.132 7.84405 11.062 7.89405 10.996C7.99436 10.8603 8.09942 10.7283 8.20905 10.6C8.29005 10.503 8.37205 10.407 8.45605 10.31L8.70605 10.026C8.74154 9.98953 8.78001 9.95608 8.82105 9.926L8.84705 9.896C8.92505 9.83 8.99405 9.76 9.08505 9.686L9.09705 9.676L9.16405 9.615C9.40405 9.387 9.68305 9.209 9.96105 9.032C9.98905 9.012 10.018 8.997 10.047 8.981L10.158 8.933C10.168 8.929 10.1781 8.923 10.187 8.921C10.244 8.89742 10.3017 8.87574 10.36 8.856L10.477 8.82C10.617 8.78 10.756 8.746 10.893 8.703C11.1458 8.62259 11.4099 8.58376 11.675 8.588ZM4.10505 9.037C4.03505 9.041 3.95205 9.034 3.89005 9.094C3.84615 9.13789 3.81154 9.19019 3.7883 9.24775C3.76506 9.30532 3.75366 9.36698 3.75478 9.42905C3.7559 9.49112 3.76952 9.55233 3.79482 9.60902C3.82012 9.66571 3.85659 9.71672 3.90205 9.759C3.9544 9.80553 4.02201 9.83123 4.09205 9.83123C4.16209 9.83123 4.2297 9.80553 4.28205 9.759C4.42705 9.632 4.46405 9.445 4.37705 9.224C4.32405 9.087 4.25205 9.037 4.10705 9.037H4.10505ZM19.951 9.099C20.038 9.098 20.114 9.152 20.181 9.245C20.195 9.255 20.2101 9.265 20.2241 9.277C20.246 9.296 20.254 9.317 20.2771 9.341C20.3761 9.454 20.484 9.565 20.587 9.675C20.5934 9.68188 20.5982 9.69007 20.601 9.699C20.6026 9.70254 20.6032 9.70641 20.6029 9.71026C20.6025 9.7141 20.6012 9.7178 20.5991 9.721C20.5954 9.72689 20.5902 9.73172 20.584 9.735L20.574 9.75L20.5721 9.752C20.57 9.754 20.5701 9.757 20.5681 9.762C20.5681 9.764 20.5651 9.766 20.5651 9.766H20.5681V9.774C20.423 9.92 20.462 10.057 20.578 10.189C20.584 10.201 20.592 10.213 20.592 10.225C20.688 10.352 20.608 10.479 20.592 10.607C20.589 10.619 20.587 10.623 20.577 10.627L20.57 10.631C20.5599 10.6307 20.5498 10.629 20.5401 10.626L20.5301 10.623C20.446 10.5985 20.3624 10.5728 20.279 10.546C20.272 10.546 20.267 10.542 20.2591 10.539C20.253 10.539 20.248 10.532 20.241 10.532C20.2007 10.5338 20.1605 10.527 20.123 10.512C20.0753 10.4884 20.0214 10.4806 19.9689 10.4896C19.9165 10.4985 19.8682 10.5239 19.831 10.562C19.8307 10.5689 19.829 10.5757 19.826 10.582C19.8661 10.642 19.934 10.657 19.994 10.676C20.239 10.756 20.4471 10.906 20.674 11.024C20.726 11.054 20.736 11.116 20.7311 11.176C20.7281 11.209 20.719 11.243 20.7111 11.279L20.639 11.589C20.6406 11.6158 20.6336 11.6424 20.619 11.665C20.623 11.833 20.505 11.958 20.449 12.102C20.443 12.114 20.4381 12.119 20.4291 12.142C20.3914 12.2438 20.3487 12.3436 20.3011 12.441C20.3011 12.448 20.291 12.458 20.289 12.465V12.46C20.289 12.462 20.2871 12.462 20.2871 12.465L20.282 12.475C20.279 12.477 20.2791 12.479 20.2771 12.482C20.2651 12.527 20.257 12.575 20.219 12.614C20.1747 12.7652 20.1119 12.9102 20.032 13.046C20.025 13.058 20.02 13.058 20.015 13.082C19.953 13.226 19.8881 13.399 19.8251 13.557C19.8111 13.615 19.799 13.672 19.785 13.727L19.7771 13.742C19.7771 13.744 19.775 13.744 19.775 13.747C19.775 13.752 19.7701 13.757 19.768 13.761C19.7703 13.8269 19.758 13.8924 19.732 13.953C19.7201 13.992 19.71 14.035 19.698 14.073C19.6973 14.0799 19.6956 14.0866 19.6931 14.093L19.4921 15.005C19.437 15.255 19.4151 15.509 19.3741 15.759C19.3361 15.994 19.326 16.236 19.268 16.467C19.228 16.635 19.132 16.791 19.055 16.947C18.983 17.093 18.937 17.249 18.848 17.391L18.841 17.406C18.8361 17.4156 18.8321 17.4256 18.8291 17.436C18.8271 17.442 18.827 17.449 18.824 17.454L18.817 17.487C18.8152 17.4989 18.8145 17.511 18.8151 17.523C18.8151 17.535 18.8151 17.547 18.812 17.559V17.595C18.8126 17.619 18.8119 17.643 18.81 17.667C18.79 17.924 18.757 18.181 18.769 18.44C18.771 18.488 18.757 18.515 18.7111 18.53L18.654 18.553C18.6158 18.5675 18.5781 18.5836 18.541 18.601L18.4811 18.625C18.4501 18.637 18.4311 18.647 18.3811 18.659V18.654C18.3811 18.654 18.375 18.659 18.371 18.659L18.2381 18.714L18.1451 18.752C18.0809 18.7953 18.0094 18.8264 17.934 18.844L17.8981 18.864C17.7393 18.933 17.5813 19.0037 17.424 19.076C17.343 19.1 17.259 19.148 17.177 19.186C17.087 19.226 17.002 19.261 16.913 19.3C16.773 19.362 16.6351 19.42 16.4951 19.481C16.4911 19.483 16.483 19.481 16.479 19.481C16.351 19.529 16.2191 19.599 16.0991 19.654C16.0511 19.68 15.982 19.707 15.922 19.731C15.812 19.774 15.787 19.769 15.762 19.656C15.691 19.604 15.684 19.516 15.658 19.44C15.631 19.368 15.6101 19.29 15.5861 19.218C15.581 19.194 15.569 19.198 15.569 19.184C15.545 19.151 15.545 19.12 15.533 19.086L15.53 19.069C15.523 19.064 15.5231 19.057 15.5201 19.049L15.514 19.033H15.518C15.485 18.933 15.448 18.833 15.425 18.733C15.401 18.666 15.358 18.601 15.345 18.531C15.3402 18.5079 15.3402 18.4841 15.345 18.461L15.353 18.428L15.357 18.411C15.3771 18.364 15.4071 18.318 15.432 18.271C15.449 18.234 15.462 18.195 15.48 18.157C15.497 18.119 15.51 18.09 15.528 18.042C15.566 17.97 15.59 17.886 15.638 17.802C15.638 17.782 15.653 17.762 15.658 17.744C15.701 17.598 15.748 17.449 15.807 17.307C15.807 17.302 15.802 17.295 15.804 17.29C15.821 17.204 15.902 17.173 15.95 17.122V17.125C15.974 17.117 15.987 17.103 15.999 17.103C16.013 17.079 16.027 17.069 16.042 17.055C16.0811 17.0072 16.1171 16.9571 16.15 16.905C16.195 16.839 16.2361 16.769 16.2871 16.702C16.3031 16.681 16.317 16.647 16.344 16.647C16.349 16.647 16.3511 16.647 16.3561 16.649C16.3951 16.659 16.383 16.704 16.378 16.733C16.3576 16.841 16.3576 16.952 16.378 17.06C16.39 17.144 16.404 17.228 16.411 17.312L16.409 17.35C16.4316 17.4109 16.4438 17.4751 16.445 17.54C16.465 17.622 16.481 17.7 16.505 17.782C16.577 17.932 16.63 18.082 16.678 18.236L16.6831 18.234C16.7631 18.354 16.846 18.494 16.928 18.624C16.952 18.656 16.9781 18.69 17.0021 18.714H17.007V18.734C17.031 18.734 17.043 18.786 17.0791 18.738C17.0721 18.714 17.067 18.714 17.059 18.714C17.0465 18.6884 17.0365 18.6616 17.029 18.634C17.024 18.618 17.016 18.599 17.014 18.584C17.0089 18.5676 17.0049 18.5509 17.0021 18.534C17.0001 18.527 17 18.517 16.997 18.51C16.9951 18.4937 16.9918 18.4777 16.987 18.462L16.976 18.387L16.963 18.313C16.956 18.306 16.956 18.296 16.956 18.287C16.954 18.277 16.952 18.267 16.946 18.257C16.944 18.229 16.939 18.2 16.935 18.171L16.913 17.999C16.911 17.969 16.901 17.941 16.899 17.912C16.8702 17.5981 16.8823 17.2818 16.935 16.971H16.949C16.978 16.827 17.007 16.661 17.035 16.505C17.043 16.505 17.05 16.508 17.059 16.508C17.049 16.768 17.0761 17.028 17.1341 17.283C17.1361 17.288 17.136 17.295 17.136 17.3C17.172 17.398 17.2111 17.497 17.2421 17.598C17.2491 17.618 17.256 17.641 17.264 17.66C17.2772 17.6941 17.2958 17.7258 17.319 17.754C17.326 17.766 17.3391 17.778 17.3391 17.79C17.364 17.809 17.376 17.83 17.396 17.85C17.41 17.866 17.4221 17.886 17.4361 17.903C17.4861 17.951 17.54 17.996 17.602 18.059C17.5955 18.0124 17.5898 17.9658 17.585 17.919C17.581 17.876 17.573 17.833 17.569 17.785C17.569 17.785 17.556 17.778 17.556 17.773C17.5551 17.7368 17.5518 17.7007 17.546 17.665L17.5061 17.335C17.5061 17.325 17.506 17.319 17.508 17.31C17.508 17.3 17.511 17.283 17.511 17.283C17.4938 17.1454 17.4871 17.0066 17.491 16.868L17.489 16.851C17.4679 16.7286 17.4672 16.6036 17.487 16.481C17.492 16.448 17.489 16.411 17.4921 16.378C17.4921 16.371 17.489 16.366 17.489 16.358C17.489 16.2 17.496 16.038 17.5441 15.886L17.5471 15.869C17.5591 15.797 17.571 15.711 17.583 15.631C17.595 15.551 17.607 15.471 17.616 15.391C17.621 15.358 17.631 15.341 17.65 15.341C17.66 15.341 17.6741 15.346 17.6901 15.358L17.74 15.388L17.816 15.437C17.84 15.454 17.864 15.47 17.886 15.492C17.888 15.494 17.89 15.497 17.8951 15.499C17.9003 15.5035 17.906 15.5075 17.9121 15.511H17.917V15.509C18.085 15.593 18.177 15.735 18.291 15.867C18.3422 15.9046 18.3806 15.9569 18.401 16.017C18.476 16.116 18.531 16.222 18.57 16.34C18.572 16.35 18.577 16.36 18.58 16.37C18.582 16.38 18.5871 16.376 18.5891 16.4C18.6091 16.424 18.6191 16.455 18.632 16.484L18.666 16.568L18.685 16.608C18.69 16.618 18.695 16.625 18.702 16.632C18.7122 16.6443 18.7264 16.6528 18.7421 16.656C18.7691 16.568 18.7071 16.484 18.7311 16.4H18.7381C18.7381 16.376 18.7311 16.375 18.7311 16.363C18.7071 16.207 18.687 16.053 18.621 15.91L18.6201 15.87C18.5621 15.727 18.534 15.58 18.4501 15.454C18.4304 15.4382 18.4173 15.4158 18.413 15.391C18.387 15.367 18.373 15.338 18.358 15.31C18.3452 15.2891 18.3325 15.2681 18.32 15.247V15.264C18.32 15.262 18.3151 15.259 18.3151 15.257V15.254C18.2476 15.1568 18.1741 15.064 18.095 14.976L18.085 14.966C18.075 14.956 18.0651 14.956 18.055 14.933C17.998 14.909 17.943 14.837 17.885 14.786C17.878 14.779 17.871 14.776 17.865 14.769C17.861 14.765 17.865 14.759 17.842 14.753C17.722 14.671 17.632 14.57 17.528 14.498C17.508 14.474 17.484 14.488 17.475 14.45C17.7851 14.43 18.085 14.467 18.397 14.486V14.474H18.399C18.5531 14.498 18.6971 14.527 18.8361 14.587C18.8411 14.587 18.8461 14.594 18.8531 14.594V14.599C18.9491 14.621 19.0401 14.664 19.1311 14.707C19.1511 14.717 19.175 14.747 19.196 14.719C19.213 14.695 19.1861 14.673 19.1721 14.654C19.1361 14.604 19.102 14.554 19.064 14.503C19.057 14.491 19.0441 14.479 19.0441 14.467C18.9731 14.397 18.918 14.317 18.854 14.247C18.8331 14.2269 18.8131 14.2059 18.7941 14.184C18.7184 14.1356 18.6486 14.0785 18.5861 14.014C18.574 14.006 18.562 13.992 18.55 13.992C18.52 13.992 18.486 13.958 18.4541 13.936C18.4241 13.915 18.39 13.896 18.358 13.874C18.346 13.867 18.3341 13.862 18.3221 13.854C18.1761 13.799 18.029 13.749 17.882 13.694C17.878 13.694 17.869 13.691 17.869 13.689C17.869 13.689 17.856 13.689 17.852 13.687C17.8252 13.6861 17.7996 13.6755 17.7801 13.657C17.7679 13.6481 17.7585 13.636 17.753 13.622L17.748 13.61C17.741 13.59 17.738 13.569 17.741 13.547C17.7454 13.4734 17.7414 13.3996 17.729 13.327C17.727 13.305 17.722 13.286 17.717 13.264C17.7127 13.2439 17.708 13.2239 17.703 13.204L17.688 13.142C17.6807 13.1118 17.6727 13.0818 17.664 13.052C17.664 13.052 17.654 13.05 17.654 13.042C17.631 12.897 17.574 12.75 17.5301 12.606L17.5131 12.549C17.4807 12.4985 17.4611 12.4408 17.456 12.381C17.456 12.361 17.456 12.345 17.458 12.325L17.46 12.299C17.465 12.272 17.47 12.244 17.48 12.217L17.5131 12.109C17.5131 12.104 17.5131 12.092 17.5161 12.092H17.5131C17.543 11.922 17.612 11.778 17.66 11.624C17.66 11.622 17.6651 11.622 17.6651 11.619L17.675 11.609C17.677 11.607 17.6791 11.607 17.6791 11.605C17.7193 11.5522 17.7382 11.4861 17.732 11.42C17.7288 11.3844 17.7196 11.3496 17.705 11.317C17.689 11.274 17.6671 11.233 17.6451 11.19C17.6431 11.185 17.635 11.18 17.6311 11.178C17.6291 11.175 17.626 11.173 17.626 11.17C17.536 11.0647 17.465 10.9446 17.416 10.815L17.401 10.777C17.396 10.772 17.396 10.767 17.393 10.76L17.3911 10.753C17.3883 10.7475 17.3859 10.7418 17.3841 10.736L17.386 10.738L17.3841 10.733C17.3869 10.7184 17.3909 10.704 17.396 10.69C17.4 10.68 17.406 10.673 17.41 10.664C17.415 10.657 17.422 10.65 17.43 10.642L17.439 10.635C17.504 10.541 17.564 10.443 17.636 10.352C17.6655 10.3179 17.6856 10.2768 17.6943 10.2326C17.7031 10.1884 17.7003 10.1427 17.6861 10.1C17.6461 9.963 17.65 9.96 17.786 9.91C17.811 9.9 18.102 9.79 18.219 9.754L18.2941 9.724L18.313 9.718C18.4823 9.65356 18.652 9.59023 18.8221 9.528C18.8271 9.526 18.8341 9.526 18.8391 9.526C18.979 9.454 19.132 9.408 19.279 9.358C19.299 9.351 19.316 9.343 19.3391 9.338C19.364 9.318 19.436 9.303 19.459 9.283C19.5791 9.245 19.6761 9.19 19.784 9.166C19.8311 9.12634 19.8896 9.10285 19.951 9.099ZM14.519 9.702C14.597 9.703 14.6745 9.71512 14.749 9.738L14.763 9.742C15.022 9.822 15.286 9.884 15.533 10.002C15.573 10.021 15.617 10.04 15.646 10.079C15.806 10.194 15.953 10.326 16.076 10.484C16.266 10.729 16.456 10.976 16.633 11.257C16.622 11.254 16.6111 11.249 16.5991 11.244V11.243C16.534 11.2152 16.472 11.1807 16.414 11.14C16.1966 11.0082 15.9715 10.8893 15.74 10.784C15.634 10.7377 15.5229 10.7042 15.409 10.684C15.1091 10.6284 14.8028 10.6146 14.499 10.643C14.415 10.65 14.3291 10.643 14.2441 10.643C14.182 10.643 14.153 10.613 14.153 10.551C14.153 10.316 14.165 10.079 14.0931 9.851C14.078 9.803 14.107 9.783 14.148 9.769C14.2674 9.72575 14.3931 9.7031 14.5201 9.702H14.519ZM11.769 10.475C12.192 10.46 12.581 10.58 12.936 10.799C13.068 10.879 13.189 10.975 13.299 11.083L13.313 11.096C13.435 11.219 13.543 11.356 13.633 11.506C13.713 11.636 13.692 11.778 13.665 11.92C13.5931 12.326 13.349 12.626 13.073 12.907C12.808 13.176 12.477 13.351 12.17 13.555C11.735 13.845 11.238 13.958 10.732 14.033C10.1 14.126 9.45905 14.136 8.82605 14.22C8.59605 14.249 8.36205 14.268 8.13205 14.309C7.86119 14.3534 7.61774 14.5002 7.45205 14.719C7.39005 14.803 7.35205 14.906 7.29205 15.022C7.24933 14.8923 7.25865 14.751 7.31805 14.628C7.42748 14.3915 7.61597 14.2005 7.85105 14.088C8.26605 13.868 8.73005 13.826 9.17405 13.713C9.53405 13.622 9.90405 13.569 10.261 13.471C10.7545 13.3385 11.2325 13.1542 11.687 12.921C11.927 12.796 12.177 12.669 12.3431 12.436C12.3994 12.3559 12.439 12.2654 12.4596 12.1697C12.4803 12.074 12.4814 11.9751 12.463 11.879C12.458 11.845 12.448 11.829 12.436 11.826C12.424 11.824 12.406 11.833 12.386 11.853C12.206 12.013 12.019 12.167 11.815 12.302C11.495 12.508 11.142 12.632 10.7771 12.722C10.1971 12.866 9.61105 12.988 9.01305 13.032C8.59126 13.0582 8.17471 13.1396 7.77405 13.274C7.43405 13.392 7.08705 13.509 6.81405 13.764C6.78005 13.794 6.73905 13.821 6.68405 13.862L6.69105 13.824L6.66505 13.843V13.838C6.67505 13.832 6.68105 13.825 6.68905 13.821C6.70464 13.7498 6.73311 13.682 6.77305 13.621L7.41905 12.599C7.43058 12.5798 7.44435 12.562 7.46005 12.546C7.79405 12.216 8.11305 11.869 8.48305 11.581C9.09705 11.101 9.76705 10.726 10.538 10.561C10.725 10.52 10.915 10.491 11.108 10.491C11.328 10.489 11.551 10.481 11.768 10.474L11.769 10.475ZM4.13705 10.497C4.15005 10.497 4.16705 10.499 4.18505 10.506C4.21505 10.516 4.24705 10.513 4.27905 10.516C4.40605 10.544 4.53905 10.546 4.66505 10.578C4.67705 10.578 4.68205 10.58 4.69905 10.588C4.83386 10.5945 4.96777 10.6136 5.09905 10.645C5.24405 10.665 5.38905 10.681 5.53205 10.705C5.56505 10.705 5.59405 10.703 5.62505 10.722C5.63005 10.722 5.63705 10.72 5.63705 10.722C5.80505 10.742 5.93705 10.752 6.08205 10.777H6.06705V10.782C6.16305 10.794 6.22705 10.806 6.30005 10.818C6.37705 10.83 6.45605 10.848 6.53005 10.848H6.53305C6.54005 10.848 6.54505 10.852 6.55005 10.852L6.57105 10.857C6.61905 10.859 6.63805 10.885 6.64605 10.927C6.68405 11.154 6.71605 11.382 6.76305 11.61C6.76305 11.627 6.77305 11.642 6.77105 11.656L6.79105 11.766L6.85205 12.098C6.85205 12.108 6.85205 12.128 6.85505 12.134V12.144C6.87905 12.287 6.90505 12.417 6.92905 12.554V12.6C6.80502 12.7362 6.70372 12.8916 6.62905 13.06C6.59905 13.135 6.55905 13.212 6.52905 13.286L6.52305 13.289C6.49905 13.365 6.46105 13.439 6.42505 13.512C6.42205 13.512 6.42005 13.517 6.41805 13.522C6.41305 13.531 6.41005 13.546 6.40605 13.552V13.555C6.35498 13.699 6.2907 13.8379 6.21405 13.97C6.20605 13.99 6.19005 14.009 6.19005 14.026C6.16605 14.116 6.14405 14.208 6.09805 14.292C6.08544 14.3708 6.06047 14.447 6.02405 14.518C5.99382 14.6533 5.95027 14.7853 5.89405 14.912C5.88705 14.931 5.87505 14.948 5.87505 14.967L5.87305 14.974C5.87005 14.981 5.86805 14.994 5.86305 15.003C5.86124 15.0134 5.85786 15.0236 5.85305 15.033L5.85105 15.043L5.81305 15.785L5.83405 15.793L5.92805 15.608C5.95905 15.548 5.98305 15.485 6.01805 15.423C6.03605 15.38 6.06805 15.337 6.06805 15.293C6.13905 15.173 6.20405 15.053 6.27805 14.943C6.28605 14.931 6.30005 14.923 6.30805 14.9C6.37005 14.803 6.44205 14.676 6.51605 14.566C6.54205 14.523 6.57005 14.486 6.59405 14.443C6.61005 14.395 6.63605 14.388 6.65805 14.367C6.67905 14.345 6.69105 14.323 6.73905 14.302C6.73905 14.321 6.74405 14.338 6.74205 14.355L6.73905 14.365C6.73905 14.374 6.73505 14.383 6.73205 14.393L6.73005 14.403C6.72705 14.41 6.72705 14.415 6.72505 14.422C6.72314 14.4285 6.72246 14.4353 6.72305 14.442C6.72305 14.448 6.71805 14.452 6.72005 14.46L6.71705 14.475H6.72005C6.69805 14.619 6.70005 14.782 6.69605 14.933C6.69605 14.94 6.69105 14.953 6.69105 14.957L6.69605 14.955C6.71605 15.099 6.73905 15.243 6.75805 15.387H6.75605C6.75905 15.387 6.76105 15.417 6.76105 15.43C6.78505 15.574 6.81605 15.72 6.83305 15.867L6.83505 15.884C6.83805 15.894 6.84005 15.901 6.84005 15.91C6.86405 16.026 6.95005 16.105 7.00305 16.206C7.04205 16.261 7.08305 16.326 7.11905 16.374H7.12105V16.376C7.24105 16.482 7.34105 16.59 7.47605 16.686C7.49605 16.686 7.51505 16.71 7.53405 16.71H7.53205V16.722C7.58005 16.727 7.62005 16.765 7.67105 16.751C7.68032 16.7485 7.68911 16.7444 7.69705 16.739C7.70405 16.734 7.71405 16.729 7.71705 16.722C7.72805 16.7 7.70705 16.688 7.69005 16.681C7.49305 16.556 7.52405 16.351 7.50005 16.16H7.50805V16.157C7.55605 16.203 7.58905 16.247 7.63005 16.297C7.63644 16.307 7.64457 16.3158 7.65405 16.323L7.70405 16.378C7.73805 16.414 7.77405 16.448 7.81205 16.478C7.85105 16.51 7.89205 16.544 7.93705 16.568C7.95705 16.575 7.97605 16.592 7.99305 16.592H7.98805C8.13205 16.662 8.25705 16.729 8.38805 16.798C8.41771 16.8018 8.44557 16.8143 8.46805 16.834C8.51605 16.978 8.57305 17.122 8.55905 17.29C8.56405 17.29 8.56905 17.307 8.57105 17.32C8.5727 17.33 8.57202 17.3403 8.56905 17.35C8.58605 17.49 8.58605 17.63 8.56605 17.77C8.56874 17.7762 8.56996 17.783 8.56961 17.7897C8.56927 17.7965 8.56736 17.8031 8.56405 17.809C8.56105 17.814 8.56405 17.816 8.56205 17.821H8.56405C8.56405 17.961 8.56205 18.099 8.52605 18.236C8.52305 18.373 8.48005 18.506 8.46605 18.642C8.46605 18.647 8.46305 18.652 8.46105 18.659C8.45305 18.685 8.44105 18.716 8.49905 18.709V18.707C8.62905 18.571 8.75905 18.44 8.87905 18.289V18.299C8.88105 18.251 8.90905 18.226 8.93605 18.203C8.98605 18.153 9.03605 18.073 9.08705 18.003C9.13705 17.933 9.18805 17.866 9.23905 17.797L9.24105 17.785C9.24805 17.761 9.25805 17.745 9.27005 17.739C9.27505 17.737 9.28005 17.734 9.28405 17.734H9.30005C9.31791 17.7372 9.33492 17.744 9.35005 17.754C9.37657 17.7686 9.40227 17.7846 9.42705 17.802C9.57105 17.881 9.73405 17.934 9.84205 18.071C9.85405 18.083 9.86805 18.085 9.88005 18.109C9.93005 18.133 9.97605 18.189 10.013 18.241L10.051 18.277C10.053 18.279 10.056 18.279 10.058 18.282C10.248 18.442 10.262 18.528 10.125 18.742C10.121 18.749 10.113 18.756 10.109 18.756C10.1034 18.7753 10.0954 18.7938 10.085 18.811C10.0795 18.8236 10.0728 18.8357 10.065 18.847L10.055 18.864C10.0201 18.922 9.98105 18.982 9.96705 19.049C9.95234 19.1037 9.94827 19.1607 9.95505 19.217C9.98105 19.311 10.005 19.407 10.025 19.503C10.037 19.56 10.049 19.618 10.0531 19.678C10.0731 19.82 10.005 19.906 9.88505 19.966V19.964C9.86105 19.966 9.85905 19.981 9.84705 19.988C9.84116 19.9937 9.83441 19.9984 9.82705 20.002C9.81495 20.0115 9.80225 20.0201 9.78905 20.028C9.75501 20.0484 9.72812 20.0787 9.71205 20.115C9.71205 20.122 9.71205 20.12 9.71005 20.125C9.70805 20.129 9.71005 20.139 9.70805 20.139H9.71505V20.153C9.69105 20.223 9.67905 20.273 9.66705 20.309C9.66405 20.319 9.66005 20.326 9.65705 20.333C9.65505 20.341 9.65005 20.345 9.64705 20.35C9.64505 20.355 9.64005 20.36 9.63805 20.362C9.63146 20.3683 9.62308 20.3725 9.61405 20.374H9.60705C9.58986 20.3726 9.57299 20.3686 9.55705 20.362C9.52305 20.35 9.47905 20.333 9.41905 20.314C9.41505 20.312 9.41005 20.312 9.40805 20.309C9.40446 20.3067 9.40033 20.3053 9.39605 20.305L9.36905 20.293H9.35905V20.283H9.35705C9.28505 20.259 9.21705 20.245 9.15305 20.218C9.11505 20.204 9.07305 20.192 9.03305 20.175C8.98305 20.163 8.93305 20.139 8.88205 20.139C8.74205 20.091 8.60105 20.067 8.46605 20.019C8.45505 20.019 8.44705 20.021 8.42305 20.019V20.021C8.32705 20.002 8.25005 19.978 8.15905 19.961C8.07005 19.947 8.03705 19.901 8.04605 19.813C8.05105 19.776 8.04905 19.733 8.04905 19.697C8.04905 19.685 8.04605 19.68 8.04605 19.657C8.03205 19.632 8.01005 19.604 7.99105 19.572C7.98524 19.564 7.98053 19.5553 7.97705 19.546C7.96505 19.534 7.94105 19.522 7.94105 19.508C7.91705 19.503 7.92605 19.498 7.91905 19.493C7.84505 19.423 7.86605 19.33 7.87605 19.241L7.87805 19.212L7.88605 19.157C7.88805 19.147 7.88805 19.137 7.89005 19.131C7.92905 18.981 7.93805 18.841 7.77705 18.751C7.75805 18.739 7.74705 18.727 7.72205 18.711V18.715C7.64977 18.6564 7.57468 18.6013 7.49705 18.55C7.48505 18.526 7.48205 18.521 7.45805 18.511C7.3449 18.4497 7.24061 18.3734 7.14805 18.284L7.07405 18.244H7.08405C7.06905 18.219 7.05205 18.222 7.04005 18.21C7.02105 18.196 7.00405 18.186 6.98005 18.17C6.86005 18.068 6.69705 17.972 6.56705 17.855C6.52205 17.84 6.49305 17.805 6.45705 17.775V17.771C6.33005 17.681 6.20505 17.595 6.08005 17.499H6.08305C6.06805 17.499 6.06805 17.487 6.04405 17.475C5.97205 17.439 5.90005 17.379 5.83805 17.331C5.81805 17.307 5.79905 17.307 5.78005 17.307C5.72205 17.259 5.67205 17.237 5.62405 17.194C5.60405 17.182 5.58805 17.168 5.56405 17.154C5.42154 17.0726 5.2887 16.9753 5.16805 16.864L5.15605 16.853L5.13405 16.829C5.11505 16.8055 5.10201 16.7777 5.09605 16.748V16.767C5.00905 16.673 4.95205 16.565 4.88005 16.467L4.87305 16.452C4.87011 16.4479 4.86837 16.443 4.86805 16.438C4.86599 16.4295 4.86498 16.4208 4.86505 16.412C4.8685 16.3926 4.87675 16.3744 4.88905 16.359C4.88905 16.354 4.89205 16.347 4.89205 16.339C4.91605 16.186 5.00005 16.047 5.06005 15.903V15.866C5.06005 15.866 5.06005 15.844 5.05705 15.834L5.05305 15.82L5.04805 15.815C5.04336 15.8102 5.0375 15.8068 5.03105 15.805H5.02405C5.00314 15.8072 4.98316 15.8148 4.96605 15.827C4.94617 15.8392 4.92772 15.8537 4.91105 15.87L4.89105 15.885C4.88582 15.8909 4.88113 15.8973 4.87705 15.904L4.87005 15.914C4.87005 15.916 4.86805 15.914 4.86805 15.914C4.86805 15.916 4.86505 15.914 4.86505 15.914V15.916C4.81705 15.971 4.74505 16.019 4.68305 16.07C4.67105 16.082 4.64905 16.096 4.64905 16.108V16.106H4.64205C4.62205 16.13 4.59705 16.13 4.57005 16.118L4.26005 15.981C4.23605 15.969 4.22405 15.943 4.22005 15.919C4.21711 15.9084 4.21444 15.8977 4.21205 15.887L4.20505 15.861V15.866C4.16905 15.698 4.22705 15.573 4.25805 15.429C4.26005 15.417 4.26305 15.405 4.26305 15.393C4.28705 15.253 4.29605 15.105 4.33705 14.97V14.908C4.31705 14.754 4.31505 14.603 4.30405 14.448L4.30605 14.37C4.29205 14.084 4.27305 13.799 4.26305 13.513C4.24105 12.915 4.19305 12.32 4.21005 11.723C4.21295 11.6134 4.18746 11.5049 4.13605 11.408C4.10573 11.3518 4.07269 11.297 4.03705 11.244C4.01075 11.2112 3.99267 11.1725 3.98432 11.1313C3.97597 11.0901 3.97759 11.0475 3.98905 11.007C4.02505 10.867 4.05205 10.723 4.07905 10.582C4.08705 10.532 4.10005 10.498 4.13905 10.496L4.13705 10.497ZM3.97105 10.877L3.97605 10.892C3.98105 10.924 3.96905 10.957 3.95605 11.005C3.94513 10.9774 3.94513 10.9466 3.95605 10.919C3.96003 10.905 3.96504 10.8913 3.97105 10.878V10.877ZM14.686 10.88C14.816 10.878 14.943 10.885 15.066 10.904C15.286 10.921 15.486 10.962 15.616 11.068C15.7111 11.108 15.805 11.158 15.896 11.212C16.116 11.344 16.3361 11.481 16.5581 11.615C16.6044 11.6424 16.6446 11.6792 16.6761 11.723L16.899 12.038C16.911 12.054 16.929 12.074 16.914 12.095C16.9091 12.1017 16.9021 12.1067 16.894 12.109C16.876 12.113 16.86 12.107 16.844 12.098C16.746 12.042 16.644 11.99 16.546 11.934C16.1737 11.7285 15.7755 11.5737 15.3621 11.474C15.255 11.444 15.154 11.414 15.039 11.399L14.887 11.365C14.883 11.368 14.892 11.377 14.904 11.389C14.909 11.394 14.9141 11.399 14.916 11.404C14.9272 11.4174 14.9408 11.4286 14.956 11.437L14.976 11.447C15.204 11.562 15.5891 11.634 15.8691 11.764L15.927 11.793C16.083 11.873 16.225 11.975 16.3671 12.083L16.635 12.29C17.0391 12.583 17.2851 12.979 17.4051 13.459C17.4081 13.473 17.4131 13.488 17.4151 13.502L17.425 13.516C17.445 13.546 17.449 13.581 17.442 13.612C17.444 13.62 17.444 13.627 17.4471 13.634C17.442 13.704 17.387 13.674 17.355 13.674C17.1479 13.6627 16.943 13.6258 16.7451 13.564H16.739C16.6881 13.548 16.621 13.524 16.574 13.51C16.363 13.435 16.164 13.347 15.959 13.272C15.707 13.182 15.509 13.011 15.297 12.859C14.9413 12.6152 14.6065 12.3423 14.296 12.043C14.2627 12.0133 14.2355 11.9772 14.216 11.937C14.1944 11.8864 14.1737 11.8354 14.154 11.784L14.118 11.69C14.1106 11.6698 14.1026 11.6498 14.094 11.63L14.092 11.625C14.089 11.623 14.089 11.618 14.089 11.615V11.613L14.087 11.603C14.074 11.5629 14.0765 11.5193 14.094 11.481C14.096 11.476 14.096 11.471 14.099 11.467L14.104 11.45L14.108 11.436C14.111 11.431 14.111 11.423 14.113 11.419L14.116 11.404L14.118 11.387L14.121 11.373L14.123 11.356L14.125 11.342L14.128 11.325L14.13 11.311L14.133 11.294C14.133 11.289 14.133 11.284 14.135 11.279C14.135 11.275 14.135 11.267 14.138 11.263V10.997C14.135 10.915 14.1641 10.883 14.246 10.886C14.326 10.888 14.408 10.885 14.489 10.881L14.564 10.885C14.604 10.883 14.644 10.88 14.686 10.88ZM14.97 11.412C14.979 11.4158 14.9884 11.4185 14.998 11.42H15C14.988 11.428 14.972 11.425 14.967 11.44C14.963 11.42 14.965 11.413 14.97 11.412ZM15.85 11.754C15.854 11.7561 15.858 11.7581 15.8621 11.76H15.865L15.85 11.754ZM13.942 11.931L13.944 11.934C13.951 11.937 13.958 11.944 13.966 11.958C14.042 12.112 14.148 12.238 14.266 12.357C14.39 12.477 14.525 12.587 14.655 12.705C14.923 12.947 15.197 13.185 15.473 13.418C15.651 13.568 15.8651 13.646 16.0931 13.706C16.611 13.838 17.142 13.888 17.668 13.96C17.807 13.98 17.932 14.025 18.042 14.116H18.035C18.045 14.124 18.052 14.128 18.059 14.136C17.7631 14.093 17.469 14.096 17.173 14.09C16.849 14.083 16.532 14.12 16.213 14.157C16.1004 14.1677 15.9867 14.1589 15.877 14.131C15.569 14.061 15.279 13.936 14.9871 13.814C14.659 13.674 14.3861 13.461 14.126 13.226L14.069 13.171C13.9845 13.0888 13.9151 12.9923 13.864 12.886L13.8621 12.88C13.772 12.668 13.777 12.432 13.846 12.172C13.865 12.102 13.886 12.032 13.908 11.962C13.915 11.94 13.9281 11.928 13.942 11.931ZM13.694 13.111C13.759 13.344 13.927 13.507 14.069 13.684L14.098 13.723L14.126 13.761C14.1573 13.7966 14.1929 13.8282 14.232 13.855C14.2491 13.867 14.262 13.875 14.278 13.888L14.298 13.905C14.4733 14.0429 14.6531 14.175 14.837 14.301L15.166 14.53C15.3151 14.633 15.471 14.72 15.634 14.796C15.674 14.816 15.716 14.832 15.757 14.851C15.881 14.904 16.007 14.95 16.136 14.991L16.156 14.998C16.236 15.018 16.323 15.026 16.406 15.036C16.438 15.038 16.47 15.043 16.498 15.046C16.5192 15.0506 16.5395 15.0587 16.5581 15.07C16.5824 15.0843 16.6052 15.101 16.626 15.12C16.7 15.187 16.7701 15.283 16.774 15.34C16.774 15.35 16.774 15.358 16.772 15.365C16.77 15.37 16.7701 15.372 16.767 15.375C16.757 15.391 16.743 15.405 16.734 15.423C16.704 15.473 16.674 15.523 16.649 15.576L16.6381 15.603C16.6196 15.6439 16.6102 15.6883 16.6106 15.7332C16.6109 15.7781 16.621 15.8224 16.64 15.863C16.755 15.749 16.8581 15.627 16.9331 15.487C16.9681 15.4229 16.9969 15.3556 17.019 15.286C17.029 15.259 17.022 15.228 17.029 15.202C17.039 15.172 17.005 15.132 17.019 15.112C17.019 15.111 17.022 15.111 17.024 15.108C17.0282 15.1048 17.033 15.1024 17.038 15.101C17.048 15.099 17.0581 15.096 17.0651 15.096C17.0841 15.094 17.1011 15.091 17.1201 15.091C17.1681 15.091 17.2141 15.099 17.26 15.113C17.288 15.123 17.279 15.158 17.276 15.185V15.19C17.271 15.276 17.236 15.355 17.2041 15.432C17.197 15.4508 17.189 15.4691 17.18 15.487C17.132 15.6196 17.0675 15.7456 16.9881 15.862C16.8701 16.018 16.734 16.164 16.5131 16.172H16.4501C16.4121 16.172 16.373 16.182 16.335 16.184C16.3164 16.1828 16.298 16.1877 16.2824 16.198C16.2669 16.2083 16.2551 16.2234 16.2491 16.241C16.232 16.28 16.209 16.313 16.191 16.351L16.184 16.368C16.0939 16.5869 15.9542 16.782 15.776 16.938C15.696 17.008 15.6121 17.077 15.526 17.141C15.3807 17.2362 15.2233 17.3115 15.058 17.365L15.022 17.379L14.988 17.394L14.9681 17.401C14.958 17.403 14.947 17.408 14.938 17.411C14.902 17.425 14.873 17.446 14.892 17.501C14.9121 17.561 14.955 17.578 15.01 17.581C15.022 17.581 15.036 17.581 15.05 17.578C15.1012 17.5733 15.1516 17.5622 15.2 17.545C15.248 17.528 15.296 17.505 15.346 17.485C15.38 17.47 15.413 17.455 15.449 17.444C15.4191 17.566 15.404 17.679 15.365 17.784L15.344 17.838C15.3151 17.9025 15.285 17.9665 15.254 18.03C15.236 18.073 15.2141 18.114 15.192 18.155C15.0771 18.385 14.947 18.605 14.787 18.81C14.6857 18.9402 14.5657 19.0547 14.431 19.15C14.3971 19.1749 14.3628 19.1992 14.328 19.223C14.2069 19.3011 14.0798 19.3696 13.948 19.428L13.884 19.458L13.831 19.478L13.788 19.496C13.748 19.512 13.706 19.526 13.665 19.541C13.6096 19.5605 13.5536 19.5782 13.497 19.594C13.3099 19.6501 13.1196 19.6949 12.927 19.728C12.919 19.728 12.914 19.731 12.907 19.731C12.852 19.741 12.7991 19.748 12.7441 19.757C12.6861 19.765 12.628 19.774 12.568 19.781C12.3664 19.8028 12.1628 19.7961 11.963 19.761L11.9351 19.753C11.8846 19.7387 11.8359 19.7185 11.79 19.693C11.728 19.659 11.67 19.623 11.608 19.593C11.5637 19.5705 11.5203 19.5462 11.478 19.52C11.4229 19.4874 11.3695 19.4521 11.318 19.414C11.2149 19.3461 11.1339 19.2494 11.085 19.136C11.0583 19.0696 11.0276 19.0048 10.993 18.942C10.983 18.922 10.972 18.906 10.963 18.889C10.8812 18.7591 10.7886 18.6363 10.686 18.522C10.646 18.4733 10.6043 18.4259 10.561 18.38C10.54 18.356 10.521 18.332 10.499 18.31C10.4149 18.2157 10.3282 18.1237 10.239 18.034L10.172 17.967C10.0595 17.8562 9.93772 17.7552 9.80805 17.665C9.71128 17.5946 9.61007 17.5304 9.50505 17.473L9.44505 17.433C9.1591 17.2532 8.93831 16.9865 8.81505 16.672C8.77205 16.579 8.70805 16.55 8.59505 16.548C8.50865 16.5495 8.42287 16.5331 8.34305 16.5L8.34105 16.498C8.29255 16.4778 8.24789 16.4494 8.20905 16.414L8.18305 16.398C8.16105 16.372 8.14505 16.34 8.12505 16.308C7.98073 16.0982 7.85173 15.8783 7.73905 15.65C7.73905 15.653 7.74105 15.655 7.74205 15.658L7.73605 15.645L7.73905 15.65C7.71653 15.584 7.69219 15.5186 7.66605 15.454L7.63005 15.368C7.61493 15.3182 7.61017 15.2658 7.61605 15.214L7.62305 15.183C7.62505 15.178 7.62505 15.173 7.62805 15.168C7.63092 15.1576 7.63494 15.1475 7.64005 15.138C7.67224 15.083 7.71548 15.0354 7.76705 14.998C7.78859 14.9803 7.81095 14.9636 7.83405 14.948C7.88005 14.914 7.92805 14.885 7.97405 14.854C8.04505 14.81 8.11705 14.77 8.19205 14.731C8.46305 14.591 8.75205 14.493 9.04905 14.417C9.06605 14.412 9.08205 14.409 9.10205 14.405C9.13505 14.397 9.17205 14.395 9.20705 14.39C9.24305 14.388 9.27905 14.385 9.31305 14.385L9.41905 14.383C9.43505 14.383 9.45505 14.383 9.47105 14.381C9.77153 14.3676 10.0716 14.3466 10.371 14.318C10.551 14.301 10.7311 14.282 10.911 14.263C11.3022 14.2191 11.6833 14.1095 12.038 13.939C12.074 13.919 12.112 13.903 12.148 13.884L12.2111 13.85C12.3551 13.773 12.499 13.699 12.638 13.617C12.652 13.597 12.668 13.591 12.693 13.584L12.703 13.581V13.593C12.7004 13.6063 12.6934 13.6182 12.683 13.627L12.662 13.641C12.522 13.819 12.331 13.941 12.165 14.091C12.1472 14.1046 12.1305 14.1197 12.115 14.136C12.062 14.179 12.0091 14.225 11.949 14.273C12.158 14.273 12.359 14.249 12.547 14.193C12.8945 14.0933 13.1997 13.8826 13.416 13.593C13.519 13.456 13.613 13.296 13.694 13.111ZM10.429 13.127C10.3206 13.1798 10.2051 13.2165 10.0861 13.236C9.52605 13.375 8.95605 13.456 8.38905 13.562C7.98763 13.6355 7.60912 13.8023 7.28405 14.049C7.26505 14.064 7.24405 14.081 7.22205 14.092C7.19605 14.109 7.18305 14.105 7.17905 14.082C7.17605 14.078 7.17605 14.071 7.17605 14.064C7.16605 13.92 7.21005 13.85 7.34205 13.79C7.52205 13.708 7.70205 13.622 7.88205 13.538C8.11705 13.43 8.36905 13.396 8.62405 13.37C9.02005 13.327 9.41605 13.276 9.81405 13.23L10.338 13.144L10.429 13.127ZM12.815 14.372H12.789C12.751 14.382 12.753 14.422 12.753 14.452C12.7561 14.552 12.76 14.654 12.773 14.755C12.783 14.865 12.8201 14.974 12.885 15.062C13.0074 15.2331 13.1893 15.3523 13.3951 15.396C13.55 15.432 13.55 15.434 13.565 15.596C13.572 15.665 13.581 15.726 13.6451 15.766C13.7591 15.833 13.872 15.903 14.009 15.912C14.093 15.919 14.1791 15.924 14.251 15.98C14.3458 16.0432 14.4571 16.0773 14.571 16.078C14.655 16.085 14.741 16.088 14.825 16.102C14.892 16.114 14.938 16.092 14.985 16.052C15.224 15.855 15.4591 15.655 15.682 15.435C15.656 15.405 15.6171 15.395 15.564 15.423C15.423 15.4921 15.2845 15.5665 15.149 15.646C15.1149 15.6693 15.0765 15.6856 15.036 15.694C14.7981 15.7403 14.5565 15.7651 14.314 15.768C14.1813 15.7616 14.0534 15.7164 13.946 15.638C13.879 15.595 13.812 15.533 13.8 15.437C13.8361 15.425 13.87 15.439 13.903 15.444C14.03 15.461 14.155 15.507 14.285 15.499C14.597 15.479 14.89 15.386 15.183 15.286L15.466 15.183C15.509 15.168 15.521 15.153 15.483 15.113C15.437 15.063 15.387 15.073 15.3361 15.079C14.7146 15.1685 14.0825 15.1533 13.466 15.034C13.286 15 13.094 14.988 13.024 14.764C13.004 14.704 12.986 14.644 12.974 14.582C12.9584 14.518 12.926 14.4593 12.88 14.412C12.8726 14.4012 12.863 14.392 12.8518 14.3851C12.8406 14.3782 12.8281 14.3738 12.815 14.372ZM12.242 14.437C12.194 14.437 12.162 14.487 12.139 14.53C12.079 14.633 12.002 14.726 11.932 14.822C11.824 14.969 11.672 15 11.514 14.976C10.9446 14.8885 10.3713 14.8284 9.79605 14.796C9.76605 14.794 9.73805 14.786 9.71405 14.806C9.53105 14.94 9.34705 15.07 9.23105 15.274C9.23805 15.276 9.24605 15.281 9.25105 15.281C9.27005 15.279 9.28605 15.274 9.30605 15.271C9.60305 15.197 9.91305 15.173 10.228 15.199C10.626 15.233 11.0201 15.312 11.416 15.367C11.4691 15.375 11.522 15.377 11.572 15.403C11.692 15.466 11.7521 15.576 11.798 15.693C11.868 15.873 11.8881 16.066 11.901 16.258C11.911 16.408 11.879 16.536 11.757 16.638C11.6628 16.7073 11.5928 16.8046 11.557 16.916C11.7111 16.916 11.8431 16.942 11.944 17.072C12.007 17.152 12.088 17.221 12.167 17.29C12.2083 17.329 12.2578 17.3583 12.3119 17.3757C12.366 17.393 12.4232 17.398 12.4795 17.3902C12.5358 17.3824 12.5896 17.3621 12.6369 17.3307C12.6842 17.2994 12.7239 17.2578 12.753 17.209C12.811 17.115 12.866 17.019 12.9281 16.928C13.015 16.801 13.0981 16.664 13.253 16.608C13.3461 16.578 13.305 16.532 13.273 16.493C13.212 16.413 13.096 16.412 12.993 16.473C12.833 16.57 12.727 16.712 12.6121 16.849C12.578 16.889 12.544 16.929 12.499 16.964C12.441 17.004 12.391 17.007 12.339 16.954C12.283 16.897 12.225 16.837 12.163 16.786C12.11 16.743 12.1 16.704 12.131 16.642C12.1985 16.5154 12.227 16.3717 12.213 16.229C12.1831 15.917 12.133 15.609 11.913 15.362C11.889 15.336 11.889 15.322 11.923 15.298C12.0391 15.219 12.1359 15.1151 12.2065 14.9938C12.2771 14.8725 12.3197 14.7369 12.331 14.597C12.338 14.522 12.324 14.462 12.264 14.441C12.257 14.4386 12.2495 14.4372 12.242 14.437ZM16.702 14.472C16.908 14.472 17.09 14.552 17.269 14.654C17.264 14.654 17.262 14.654 17.257 14.657L17.2871 14.674C17.017 14.714 16.747 14.734 16.477 14.704C16.393 14.694 16.309 14.678 16.222 14.681C16.052 14.686 15.915 14.597 15.771 14.52H15.788C15.776 14.513 15.764 14.508 15.752 14.5C15.776 14.503 15.802 14.503 15.826 14.505C15.8551 14.508 15.881 14.515 15.91 14.52C16.148 14.57 16.378 14.5 16.614 14.477C16.6436 14.4737 16.6723 14.472 16.702 14.472ZM8.01305 15.186C8.00751 15.1863 8.00209 15.1877 7.99705 15.19C7.94705 15.209 7.89905 15.238 7.88505 15.305C7.83705 15.528 7.94005 15.742 8.16305 15.857C8.26305 15.91 8.34105 15.984 8.38905 16.087C8.40505 16.124 8.40805 16.193 8.46105 16.181C8.51305 16.169 8.47105 16.104 8.48205 16.078C8.49005 15.943 8.46305 15.828 8.35505 15.758C8.27505 15.708 8.24505 15.638 8.21505 15.557C8.17705 15.451 8.16805 15.334 8.08105 15.25C8.06105 15.229 8.04605 15.186 8.01305 15.186ZM9.85605 15.54C9.74605 15.567 9.62005 15.593 9.50305 15.646C9.42105 15.684 9.41605 15.73 9.48805 15.785C9.53105 15.819 9.57505 15.835 9.62805 15.815C9.71104 15.7822 9.8017 15.7739 9.88928 15.791C9.97685 15.8082 10.0576 15.8502 10.122 15.912C10.1928 15.9732 10.2791 16.0136 10.3713 16.029C10.4636 16.0443 10.5583 16.0339 10.6451 15.999C10.751 15.963 10.842 15.903 10.938 15.849C10.9728 15.8286 11.0112 15.8151 11.051 15.809C11.195 15.795 11.339 15.776 11.481 15.756C11.519 15.751 11.579 15.766 11.589 15.72C11.599 15.672 11.543 15.643 11.509 15.612C11.493 15.595 11.464 15.592 11.439 15.586C11.2977 15.5417 11.1471 15.5365 11.003 15.571C10.7105 15.6345 10.4076 15.6345 10.115 15.571C10.035 15.551 9.95205 15.551 9.85505 15.541L9.85605 15.54ZM16.7591 16.429C16.765 16.429 16.769 16.432 16.774 16.436C16.7789 16.4399 16.783 16.4446 16.786 16.45L16.7941 16.455C16.8371 16.489 16.787 16.565 16.774 16.623C16.7441 16.791 16.717 16.957 16.688 17.125C16.681 17.173 16.676 17.223 16.64 17.29L16.633 17.247L16.621 17.271C16.5803 17.0376 16.5553 16.8017 16.546 16.565C16.544 16.512 16.58 16.5 16.614 16.488C16.6621 16.472 16.7211 16.422 16.7591 16.428V16.429ZM13.539 17.331C13.5313 17.3332 13.5238 17.3366 13.517 17.341C13.3271 17.446 13.113 17.451 12.904 17.478C12.816 17.49 12.7041 17.463 12.64 17.528C12.482 17.684 12.347 17.618 12.208 17.508C12.201 17.504 12.194 17.497 12.184 17.494C11.978 17.384 11.7711 17.344 11.5601 17.489C11.5228 17.5184 11.4798 17.5397 11.4338 17.5514C11.3878 17.5632 11.3398 17.5651 11.293 17.557C11.219 17.537 11.162 17.542 11.103 17.595C11.075 17.622 11.0371 17.643 11.003 17.665C10.909 17.727 10.909 17.737 10.996 17.805C11.0161 17.823 11.039 17.83 11.063 17.838C11.263 17.898 11.45 17.854 11.625 17.758C11.807 17.66 11.978 17.665 12.143 17.79C12.295 17.902 12.455 17.905 12.623 17.835C12.8317 17.739 13.0509 17.6675 13.276 17.622C13.3101 17.617 13.344 17.605 13.375 17.632C13.471 17.72 13.562 17.658 13.654 17.622C13.6901 17.607 13.694 17.578 13.692 17.542C13.6851 17.466 13.627 17.422 13.594 17.362C13.579 17.337 13.562 17.327 13.54 17.332L13.539 17.331ZM8.82205 17.401C8.83105 17.401 8.84205 17.407 8.85405 17.418C8.89305 17.454 8.92905 17.492 8.96705 17.528L8.98205 17.542C9.00105 17.559 9.00305 17.581 8.99405 17.602L8.77005 18.052L8.74605 18.044C8.74605 18.039 8.74905 18.037 8.74905 18.032C8.79705 17.835 8.77805 17.632 8.80405 17.432C8.80605 17.412 8.81305 17.402 8.82205 17.402V17.401ZM12.722 17.989C12.484 17.996 12.242 18.035 12.019 18.111C11.834 18.174 11.627 18.217 11.531 18.431C11.476 18.555 11.483 18.687 11.445 18.811C11.462 18.911 11.462 19.008 11.519 19.092C11.536 19.116 11.543 19.155 11.584 19.152C11.627 19.15 11.642 19.114 11.654 19.085C11.6971 18.995 11.707 18.891 11.734 18.795C11.781 18.639 11.853 18.515 12.016 18.445C12.186 18.373 12.359 18.305 12.532 18.239C12.5636 18.2258 12.5982 18.2216 12.632 18.227C12.847 18.257 13.0701 18.247 13.26 18.373C13.269 18.3792 13.2791 18.3834 13.2898 18.3855C13.3005 18.3875 13.3114 18.3874 13.322 18.385C13.394 18.368 13.402 18.345 13.358 18.287C13.2861 18.1874 13.1899 18.1077 13.0787 18.0556C12.9674 18.0034 12.8446 17.9805 12.722 17.989ZM10.504 18.73L10.518 18.747C10.612 18.864 10.705 18.965 10.768 19.083C10.918 19.373 11.142 19.584 11.43 19.738C11.5651 19.81 11.686 19.91 11.844 19.928L11.847 19.929H11.865C11.882 19.929 11.905 19.925 11.901 19.952C11.898 19.966 11.884 19.966 11.87 19.964H11.863C11.858 19.964 11.853 19.964 11.848 19.961C11.681 19.966 11.518 19.994 11.355 20.028C11.27 20.046 11.1851 20.066 11.1 20.086C11.0193 20.1056 10.9383 20.124 10.857 20.141H10.854C10.821 20.149 10.806 20.165 10.811 20.199C10.816 20.239 10.831 20.261 10.878 20.271C10.9685 20.2863 11.0604 20.292 11.1521 20.288C11.2701 20.285 11.387 20.273 11.505 20.254C11.7628 20.2143 12.0251 20.2137 12.283 20.252C11.853 20.322 11.498 20.564 11.109 20.727C10.907 20.811 10.751 20.972 10.559 21.075C10.545 21.092 10.537 21.119 10.523 21.135C10.492 21.175 10.487 21.253 10.436 21.245H10.432C10.427 21.245 10.422 21.248 10.417 21.245C10.323 21.2369 10.2321 21.2074 10.151 21.159C10.121 21.14 10.129 21.104 10.129 21.07V20.617C10.129 20.585 10.141 20.55 10.11 20.527C10.004 20.461 10.03 20.345 10.004 20.249C9.99405 20.211 10.021 20.192 10.043 20.169L10.321 19.859C10.384 19.791 10.41 19.716 10.364 19.635C10.278 19.472 10.292 19.315 10.3621 19.15C10.417 19.02 10.453 18.883 10.504 18.73ZM15.089 18.907C15.094 18.91 15.099 18.912 15.101 18.915L15.108 18.907C15.147 18.929 15.148 18.957 15.158 18.982C15.26 19.229 15.358 19.479 15.458 19.726C15.483 19.781 15.488 19.829 15.452 19.876C15.3979 19.944 15.3623 20.0249 15.3488 20.1108C15.3353 20.1967 15.3443 20.2846 15.375 20.366C15.442 20.571 15.394 20.713 15.192 20.814C15.1562 20.8369 15.1146 20.8494 15.072 20.85C15.0399 20.8518 15.0084 20.841 14.984 20.82C14.609 20.561 14.163 20.475 13.742 20.326C13.682 20.306 13.625 20.283 13.562 20.269C13.4901 20.252 13.495 20.204 13.505 20.153C13.512 20.117 13.531 20.113 13.55 20.115C13.5701 20.11 13.596 20.125 13.613 20.129C14.093 20.249 14.578 20.345 15.041 20.525C15.0581 20.533 15.071 20.535 15.084 20.538C15.118 20.533 15.128 20.501 15.123 20.456C15.113 20.348 15.103 20.242 14.979 20.186C14.6708 20.05 14.3405 19.9707 14.004 19.952C13.954 19.947 13.906 19.945 13.854 19.942C14.0931 19.798 14.354 19.722 14.568 19.536C14.5942 19.5149 14.6192 19.4926 14.643 19.469L15.041 18.987L15.089 18.907ZM13.207 20.04H13.227C13.257 20.038 13.281 20.045 13.284 20.093C13.284 20.137 13.294 20.175 13.224 20.185C13.1334 20.1992 13.0418 20.2062 12.95 20.206C12.856 20.206 12.765 20.196 12.672 20.176C12.622 20.163 12.602 20.129 12.607 20.089C12.609 20.062 12.627 20.062 12.647 20.062C12.6601 20.0605 12.6734 20.0615 12.686 20.065H12.866C12.9799 20.074 13.0946 20.0659 13.206 20.041L13.207 20.04ZM13.243 20.436C13.249 20.436 13.255 20.438 13.263 20.441L14.107 20.791C13.975 20.901 13.853 20.998 13.733 21.094C13.512 21.272 13.293 21.452 13.087 21.647C13.037 21.695 12.997 21.697 12.94 21.661C12.5867 21.4555 12.2203 21.2734 11.8431 21.116C11.6781 21.046 11.503 21.018 11.332 20.958C11.352 20.922 11.387 20.922 11.416 20.912C11.783 20.775 12.158 20.652 12.518 20.492C12.612 20.449 12.705 20.485 12.796 20.497C12.933 20.517 13.066 20.518 13.19 20.451C13.2058 20.4407 13.2243 20.4355 13.243 20.436ZM11.082 21.134C11.1102 21.1357 11.1378 21.1418 11.164 21.152C11.361 21.229 11.544 21.337 11.733 21.426C11.7383 21.4257 11.7436 21.4264 11.7485 21.4281C11.7535 21.4298 11.7581 21.4325 11.762 21.436C11.766 21.438 11.767 21.44 11.767 21.447V21.452C11.767 21.455 11.764 21.455 11.764 21.457C11.762 21.46 11.759 21.46 11.757 21.46L11.747 21.457C11.742 21.4542 11.7378 21.4501 11.735 21.445L10.873 21.231C10.9471 21.172 11.006 21.131 11.082 21.134ZM19.2521 21.669C19.1101 21.665 18.992 21.731 18.88 21.819C18.85 21.841 18.834 21.867 18.786 21.836C18.681 21.764 18.58 21.783 18.491 21.876C18.4406 21.9276 18.4051 21.9919 18.3881 22.062C18.2631 22.566 18.1361 23.068 18.0161 23.574C17.975 23.744 18.064 23.829 18.239 23.804C18.397 23.778 18.477 23.687 18.503 23.484C18.529 23.286 18.5561 23.092 18.6131 22.888C18.7631 23.075 18.903 23.25 19.046 23.426C19.185 23.596 19.3361 23.747 19.5401 23.838C19.684 23.903 19.809 23.865 19.9221 23.764C19.9512 23.7394 19.9722 23.7065 19.982 23.6697C19.9918 23.6328 19.9901 23.5938 19.977 23.558C19.9696 23.5219 19.9496 23.4897 19.9207 23.4668C19.8919 23.444 19.8559 23.432 19.819 23.433C19.7618 23.4281 19.708 23.4034 19.667 23.363C19.5312 23.2458 19.4096 23.1128 19.305 22.967C19.215 22.847 19.211 22.847 19.331 22.765C19.583 22.592 19.671 22.348 19.653 22.055C19.639 21.836 19.521 21.709 19.313 21.675C19.2929 21.6716 19.2725 21.6696 19.2521 21.669ZM8.51905 21.699C8.47905 21.699 8.44205 21.719 8.42205 21.774C8.40305 21.824 8.36905 21.817 8.33105 21.812C8.21067 21.7919 8.0872 21.8014 7.97133 21.8397C7.85546 21.8781 7.75067 21.9441 7.66605 22.032C7.28605 22.402 7.09205 22.845 7.11405 23.385C7.12805 23.743 7.33405 23.915 7.68305 23.836C8.37205 23.676 8.90705 23.001 8.93605 22.254C8.94305 22.062 8.76805 21.784 8.59605 21.716C8.57159 21.706 8.54548 21.7005 8.51905 21.7V21.699ZM6.58905 21.757C6.36278 21.7602 6.14521 21.8447 5.97605 21.995C5.63005 22.297 5.42905 22.688 5.33005 23.133C5.29066 23.2973 5.31761 23.4705 5.40505 23.615C5.47505 23.733 5.56305 23.776 5.69705 23.75C6.00055 23.692 6.29375 23.5892 6.56705 23.445C6.65068 23.4016 6.72668 23.3449 6.79205 23.277C6.84574 23.2227 6.87591 23.1494 6.87605 23.073C6.87605 22.998 6.84305 22.973 6.77305 22.969C6.70305 22.967 6.64305 22.993 6.58105 23.015C6.37405 23.09 6.17305 23.181 5.95905 23.235C5.85405 23.262 5.81905 23.238 5.79605 23.13C5.78936 23.0894 5.79107 23.0479 5.80105 23.008C5.84105 22.84 5.89905 22.678 5.98805 22.525C6.04681 22.413 6.13066 22.3162 6.23305 22.242C6.37305 22.153 6.51605 22.105 6.67505 22.202C6.72705 22.232 6.77805 22.218 6.82505 22.189C6.89784 22.1429 6.95121 22.0718 6.97505 21.989C6.99105 21.939 6.97705 21.899 6.93105 21.872C6.82742 21.8071 6.70987 21.7677 6.58805 21.757H6.58905ZM15.789 21.827C15.6933 21.8237 15.5979 21.8403 15.5089 21.8757C15.4199 21.9112 15.3393 21.9647 15.272 22.033C15.116 22.194 15.089 22.357 15.188 22.559C15.262 22.71 15.365 22.839 15.466 22.974C15.538 23.068 15.615 23.161 15.682 23.26C15.7301 23.33 15.706 23.385 15.624 23.411C15.5783 23.4264 15.5286 23.4246 15.484 23.406C15.3453 23.3557 15.2183 23.2774 15.111 23.176C15.0713 23.144 15.0426 23.1002 15.029 23.051C15.017 22.977 14.976 22.943 14.904 22.936C14.823 22.929 14.748 22.929 14.7 23.016C14.62 23.154 14.643 23.279 14.787 23.409C15.063 23.654 15.392 23.762 15.72 23.789C16.0201 23.793 16.205 23.522 16.107 23.267C16.064 23.152 15.989 23.051 15.917 22.953C15.797 22.794 15.6721 22.64 15.5601 22.477C15.47 22.352 15.512 22.261 15.658 22.213C15.793 22.17 15.908 22.208 16.018 22.293C16.148 22.393 16.258 22.34 16.2871 22.177C16.3041 22.091 16.2571 22.033 16.1971 21.983C16.0815 21.8868 15.9373 21.8316 15.787 21.826L15.789 21.827ZM17.694 21.887C17.557 21.884 17.42 21.887 17.284 21.903C17.1201 21.923 16.964 21.968 16.904 22.151C16.902 22.161 16.89 22.175 16.88 22.177C16.693 22.225 16.628 22.379 16.578 22.535C16.472 22.881 16.378 23.231 16.2801 23.577C16.2561 23.661 16.2901 23.717 16.3601 23.759C16.4141 23.793 16.47 23.791 16.532 23.774C16.856 23.694 17.18 23.608 17.519 23.632C17.5632 23.6333 17.6069 23.6233 17.646 23.603C17.6869 23.5789 17.7198 23.5433 17.7406 23.5006C17.7614 23.4579 17.7692 23.4101 17.7631 23.363C17.7491 23.273 17.677 23.246 17.6 23.233C17.5414 23.2241 17.4823 23.2188 17.423 23.217C17.2153 23.2176 17.008 23.235 16.803 23.269C16.833 23.041 16.851 23.027 17.067 23.027C17.227 23.027 17.3891 23.017 17.5401 22.955C17.6401 22.912 17.706 22.842 17.716 22.729C17.723 22.653 17.691 22.607 17.612 22.605C17.5487 22.602 17.4853 22.6027 17.4221 22.607L16.969 22.647C16.993 22.595 17.005 22.547 17.031 22.511C17.075 22.449 17.024 22.333 17.115 22.302C17.19 22.278 17.279 22.295 17.3601 22.292C17.574 22.288 17.787 22.285 17.994 22.218C18.0711 22.198 18.1389 22.1521 18.1861 22.088C18.2561 21.98 18.229 21.908 18.104 21.903C17.9681 21.897 17.831 21.89 17.694 21.887ZM11.03 21.895C10.959 21.892 10.9 21.937 10.845 21.988C10.7038 22.1228 10.5728 22.2678 10.453 22.422L10.0861 22.878C10.0661 22.902 10.046 22.948 10.006 22.928C9.97605 22.914 9.98805 22.873 9.99205 22.842C10.002 22.732 10.016 22.624 10.028 22.513C10.043 22.369 10.062 22.225 10.038 22.081C10.007 21.908 9.88205 21.861 9.74305 21.968C9.70939 21.9958 9.67796 22.0263 9.64905 22.059C9.53875 22.1888 9.43909 22.3272 9.35105 22.473C9.12605 22.821 8.91905 23.183 8.64805 23.5C8.59805 23.56 8.54505 23.618 8.49905 23.682C8.45105 23.754 8.43205 23.836 8.47705 23.912C8.51805 23.98 8.58705 24.004 8.66505 23.999C8.74605 23.995 8.79005 23.935 8.83305 23.877L9.45905 23.025C9.47105 23.01 9.47605 22.981 9.51205 22.991C9.50657 23.0275 9.50257 23.0642 9.50005 23.101C9.49005 23.238 9.46205 23.375 9.49005 23.514C9.52405 23.674 9.65005 23.738 9.79605 23.666C9.87089 23.6252 9.93957 23.574 10 23.514C10.117 23.402 10.228 23.281 10.33 23.152C10.444 23.008 10.559 22.862 10.679 22.705C10.715 22.825 10.701 22.933 10.696 23.041C10.684 23.229 10.648 23.416 10.684 23.606C10.708 23.723 10.775 23.793 10.871 23.8C10.9689 23.8084 11.0668 23.7837 11.149 23.73C11.274 23.651 11.286 23.493 11.169 23.387C11.1355 23.3579 11.1132 23.3179 11.106 23.274C11.08 23.144 11.102 23.017 11.123 22.89C11.162 22.645 11.238 22.405 11.226 22.153C11.222 22.055 11.206 21.963 11.106 21.916C11.0824 21.9041 11.0565 21.8963 11.03 21.895ZM19.07 22.085C19.187 22.075 19.245 22.148 19.21 22.261C19.1955 22.3091 19.1717 22.354 19.14 22.393C19.012 22.554 18.8491 22.663 18.6451 22.746C18.6615 22.5999 18.6985 22.4568 18.755 22.321C18.817 22.187 18.918 22.099 19.07 22.085ZM12.419 22.105C12.4712 22.1027 12.523 22.1145 12.569 22.139C12.6451 22.182 12.6671 22.285 12.614 22.372C12.5649 22.4448 12.5021 22.5073 12.429 22.556C12.2845 22.6662 12.1207 22.7486 11.946 22.799C12.016 22.583 12.074 22.384 12.191 22.213C12.2183 22.1788 12.253 22.1512 12.2925 22.1325C12.332 22.1138 12.3753 22.1044 12.419 22.105ZM14.019 22.196C14.0917 22.192 14.1643 22.2036 14.232 22.23C14.345 22.276 14.382 22.33 14.381 22.5C14.3481 22.8166 14.1962 23.109 13.956 23.318C13.8654 23.3968 13.7518 23.4445 13.632 23.454C13.485 23.466 13.37 23.374 13.385 23.226C13.413 22.906 13.5 22.602 13.715 22.35C13.7528 22.3052 13.7992 22.2685 13.8514 22.2421C13.9036 22.2156 13.9606 22.1999 14.019 22.196ZM8.13705 22.199C8.21149 22.1946 8.28597 22.2069 8.35505 22.235C8.46505 22.278 8.50405 22.333 8.49905 22.497C8.46824 22.8136 8.31721 23.1064 8.07705 23.315C7.98591 23.3943 7.8723 23.4433 7.75205 23.455C7.60205 23.466 7.48605 23.373 7.50005 23.222C7.53005 22.907 7.61605 22.609 7.82505 22.362C7.86312 22.3149 7.91045 22.2761 7.96412 22.2481C8.01779 22.2201 8.07665 22.2033 8.13705 22.199Z" fill="black"/>
</g>
<defs>
<clipPath id="clip0_46_5">
<rect width="24" height="24" fill="white"/>
</clipPath>
</defs>
</svg>
