<svg width="24" height="24" viewBox="0 0 24 24" fill="none" xmlns="http://www.w3.org/2000/svg">
<g clip-path="url(#clip0_46_9)">
<path d="M24 18.588C23.6507 18.7201 23.2651 18.7198 22.916 18.5872C22.5669 18.4545 22.2785 18.1987 22.105 17.868L18.655 13.097L18.155 12.43L14.152 17.874C13.989 18.1908 13.7162 18.4375 13.3845 18.5678C13.0529 18.6981 12.6851 18.7031 12.35 18.582L17.508 11.662L12.71 5.41099C13.055 5.28667 13.4323 5.28502 13.7784 5.40633C14.1244 5.52763 14.4181 5.76448 14.61 6.07699L18.186 10.907L21.782 6.09699C21.9463 5.78578 22.2192 5.54578 22.5488 5.42262C22.8785 5.29946 23.2419 5.30173 23.57 5.42899L21.708 7.89999L19.186 11.183C19.116 11.2455 19.0599 11.322 19.0216 11.4077C18.9832 11.4933 18.9633 11.5861 18.9633 11.68C18.9633 11.7738 18.9832 11.8666 19.0216 11.9523C19.0599 12.0379 19.116 12.1145 19.186 12.177L23.99 18.589L24 18.588ZM0.002012 11.576L0.422012 9.50099C1.57601 5.39799 6.28001 3.69099 9.51601 6.23099C11.411 7.71999 11.884 9.82799 11.791 12.204H1.11601C0.943012 16.447 4.00501 19.009 7.92001 17.7C8.55467 17.4715 9.12275 17.0892 9.57337 16.5873C10.024 16.0854 10.3431 15.4795 10.502 14.824C10.709 14.158 11.05 14.044 11.676 14.236C11.5717 15.0484 11.2845 15.8265 10.8361 16.5119C10.3876 17.1973 9.78963 17.7721 9.08701 18.193C7.92643 18.8278 6.59484 19.0794 5.28264 18.9119C3.97043 18.7443 2.74481 18.1661 1.78101 17.26C0.828041 16.1874 0.252088 14.8325 0.141012 13.402C0.141012 13.167 0.061012 12.947 0.007012 12.736C0.00214403 12.3497 -0.000189357 11.9633 1.19963e-05 11.577L0.002012 11.576ZM1.12901 11.29H10.783C10.723 8.21399 8.78201 6.03199 6.19301 6.01199C3.31101 5.97199 1.24901 8.10599 1.12201 11.276L1.12901 11.29Z" fill="black"/>
</g>
<defs>
<clipPath id="clip0_46_9">
<rect width="24" height="24" fill="white"/>
</clipPath>
</defs>
</svg>
