<svg width="24" height="24" viewBox="0 0 24 24" fill="none" xmlns="http://www.w3.org/2000/svg">
<g clip-path="url(#clip0_46_21)">
<path d="M0.228341 8.36915C0.228341 8.36915 -0.356212 7.94324 0.345251 7.37453L1.97956 5.89736C1.97956 5.89736 2.44721 5.40004 2.94164 5.83334L18.0231 17.375V22.9094C18.0231 22.9094 18.0158 23.7785 16.9124 23.6825L0.228341 8.36915Z" fill="black"/>
<path d="M4.11559 11.9367L0.228312 15.5089C0.228312 15.5089 -0.171133 15.8093 0.228312 16.346L2.03312 18.0053C2.03312 18.0053 2.46179 18.4706 3.09506 17.9413L7.21615 14.7827L4.11559 11.9367Z" fill="black"/>
<path d="M10.9401 11.9661L18.0692 6.46362L18.0229 0.958651C18.0229 0.958651 17.7184 -0.242792 16.7028 0.382549L7.21594 9.11025L10.9401 11.9661Z" fill="black"/>
<path d="M16.9122 23.69C17.3262 24.1183 17.828 23.978 17.828 23.978L23.3839 21.2108C24.0952 20.7208 23.9953 20.1127 23.9953 20.1127V3.58803C23.9953 2.86175 23.2597 2.61063 23.2597 2.61063L18.4442 0.264377C17.392 -0.392968 16.7028 0.382548 16.7028 0.382548C16.7028 0.382548 17.5893 -0.262484 18.0229 0.95865V22.8086C18.0229 22.9588 17.9912 23.1065 17.9279 23.2394C17.8012 23.4979 17.526 23.7392 16.8659 23.6383L16.9122 23.69Z" fill="black"/>
</g>
<defs>
<clipPath id="clip0_46_21">
<rect width="24" height="24" fill="white"/>
</clipPath>
</defs>
</svg>
